<?xml version="1.0" encoding="UTF-8"?>
<svg width="192px" height="192px" viewBox="0 0 192 192" version="1.1" xmlns="http://www.w3.org/2000/svg" xmlns:xlink="http://www.w3.org/1999/xlink">
    <!-- Generator: Sketch 55 (78076) - https://sketchapp.com -->
    <title>icon</title>
    <desc>Created with Sketch.</desc>
    <defs>
        <filter x="-1.4%" y="-1.4%" width="102.9%" height="102.8%" filterUnits="objectBoundingBox" id="filter-1">
            <feOffset dx="0" dy="0" in="SourceAlpha" result="shadowOffsetOuter1"></feOffset>
            <feGaussianBlur stdDeviation="0.5" in="shadowOffsetOuter1" result="shadowBlurOuter1"></feGaussianBlur>
            <feColorMatrix values="0 0 0 0 0   0 0 0 0 0   0 0 0 0 0  0 0 0 0.5 0" type="matrix" in="shadowBlurOuter1" result="shadowMatrixOuter1"></feColorMatrix>
            <feMerge>
                <feMergeNode in="shadowMatrixOuter1"></feMergeNode>
                <feMergeNode in="SourceGraphic"></feMergeNode>
            </feMerge>
        </filter>
    </defs>
    <g id="icon" stroke="none" stroke-width="1" fill="none" fill-rule="evenodd">
        <rect id="Rectangle" fill="#333333" x="1" y="1" width="190" height="190" rx="18"></rect>
        <g id="Group" filter="url(#filter-1)" transform="translate(9.000000, 6.640625)" fill-rule="nonzero">
            <path d="M132.942105,74.5901442 C133.4,74.2824519 134.010526,74.2824519 134.315789,74.7439904 L169.726316,115.667067 C171.557895,109.97476 172.778947,103.97476 173.389474,97.8209135 L135.842105,72.5901442 C135.384211,72.2824519 135.231579,71.6670673 135.536842,71.2055288 C135.842105,70.7439904 136.452632,70.5901442 136.910526,70.8978365 L173.694737,95.5132212 C173.847368,93.359375 174,91.2055288 174,89.0516827 C174,87.6670673 174,86.1286058 173.847368,84.7439904 L137.215789,68.4362981 C136.757895,68.2824519 136.452632,67.6670673 136.757895,67.0516827 C136.910526,66.5901442 137.521053,66.2824519 138.131579,66.5901442 L173.847368,82.4362981 C173.389474,76.7439904 172.473684,71.0516827 170.947368,65.6670673 L138.284211,64.4362981 C137.673684,64.4362981 137.215789,63.9747596 137.368421,63.359375 C137.368421,62.7439904 137.826316,62.4362981 138.436842,62.4362981 L170.336842,63.6670673 C169.115789,59.5132212 167.436842,55.359375 165.605263,51.5132212 L137.521053,59.6670673 C137.368421,59.6670673 137.368421,59.6670673 137.215789,59.6670673 C136.757895,59.6670673 136.3,59.359375 136.3,58.8978365 C136.147368,58.2824519 136.452632,57.8209135 137.063158,57.6670673 L164.842105,49.6670673 C163.163158,46.4362981 161.331579,43.2055288 159.347368,40.1286058 L135.536842,55.2055288 C135.384211,55.359375 135.231579,55.359375 134.926316,55.359375 C134.621053,55.359375 134.315789,55.2055288 134.010526,54.8978365 C133.705263,54.4362981 133.857895,53.8209135 134.315789,53.5132212 L157.668421,38.4362981 C142.1,15.9747596 116.305263,1.359375 87,1.359375 C38.9210526,1.359375 0,40.5901442 0,89.0516827 C0,110.74399 7.93684211,130.590144 20.9105263,145.97476 C21.5210526,143.820913 22.1315789,141.820913 22.8947368,139.667067 C24.1157895,136.897837 24.8789474,133.97476 25.4894737,131.051683 C25.3368421,128.436298 25.7947368,125.820913 26.7105263,123.359375 C27.3210526,121.820913 28.0842105,120.282452 28.6947368,118.74399 C28.8473684,118.282452 31.5947368,112.436298 31.9,112.128606 C32.2052632,111.820913 32.6631579,111.051683 33.1210526,111.667067 C33.5789474,112.128606 33.4263158,113.359375 33.4263158,113.820913 C33.4263158,114.590144 33.5789474,115.513221 33.5789474,116.282452 C33.7315789,117.97476 33.8842105,119.667067 33.8842105,121.359375 C34.0368421,124.590144 34.1894737,127.820913 34.1894737,131.205529 C34.1894737,134.436298 34.1894737,137.667067 34.1894737,140.897837 C34.3421053,146.590144 34.9526316,152.282452 36.1736842,157.820913 C36.3263158,158.74399 36.6315789,159.667067 36.7842105,160.436298 C37.7,161.051683 38.4631579,161.667067 39.3789474,162.282452 C38.9210526,160.436298 38.4631579,158.590144 38.0052632,156.74399 C37.2421053,152.74399 36.7842105,148.897837 36.6315789,144.897837 C36.4789474,141.667067 35.5631579,120.436298 35.2578947,117.97476 C35.1052632,117.051683 34.9526316,116.128606 34.9526316,115.205529 L34.6473684,112.590144 C34.4947368,111.820913 34.3421053,111.051683 34.6473684,110.128606 C34.9526316,109.359375 35.5631579,108.74399 36.1736842,108.128606 C36.9368421,107.359375 37.3947368,106.128606 38.0052632,105.205529 C39.2263158,103.513221 40.2947368,101.513221 41.2105263,99.6670673 C41.6684211,98.5901442 41.9736842,97.359375 41.9736842,96.2824519 C41.9736842,95.6670673 41.9736842,95.0516827 41.8210526,94.4362981 C41.6684211,93.9747596 41.6684211,93.6670673 41.5157895,93.2055288 C41.5157895,93.0516827 41.3631579,93.0516827 41.3631579,92.8978365 C41.0578947,92.2824519 40.4473684,91.5132212 39.9894737,90.8978365 C39.0736842,90.1286058 38.4631579,89.359375 37.7,88.2824519 C37.0894737,87.5132212 36.1736842,86.5901442 36.7842105,85.6670673 C37.0894737,85.0516827 38.3105263,85.0516827 38.9210526,85.0516827 C40.2947368,85.2055288 41.6684211,85.359375 43.0421053,85.359375 C43.8052632,85.359375 44.4157895,85.0516827 44.8736842,84.4362981 C45.1789474,83.9747596 45.1789474,82.8978365 45.1789474,82.4362981 C45.1789474,81.8209135 45.1789474,81.0516827 45.1789474,80.4362981 C45.0263158,79.0516827 44.7210526,77.8209135 44.2631579,76.5901442 C43.1947368,73.9747596 41.5157895,72.2824519 39.3789474,70.5901442 C39.2263158,70.4362981 39.2263158,70.4362981 39.0736842,70.2824519 C38.9210526,70.1286058 38.7684211,69.8209135 38.6157895,69.5132212 C38.3105263,68.7439904 38.3105263,67.8209135 38.1578947,66.8978365 C37.7,62.5901442 37.8526316,58.1286058 38.6157895,53.8209135 C39.0736842,50.7439904 41.2105263,48.2824519 44.1105263,47.2055288 C44.1105263,47.2055288 43.3473684,46.7439904 43.3473684,46.5901442 C43.0421053,46.4362981 42.7368421,46.2824519 42.4315789,46.2824519 C41.8210526,46.1286058 41.0578947,46.1286058 40.4473684,46.2824519 C39.8368421,46.4362981 39.0736842,46.7439904 38.6157895,47.0516827 C38.0052632,47.5132212 38.0052632,48.1286058 37.0894737,48.2824519 C37.0894737,48.2824519 37.0894737,48.2824519 36.9368421,48.2824519 C36.9368421,48.2824519 36.7842105,48.2824519 36.7842105,48.2824519 C36.6315789,48.2824519 36.3263158,47.5132212 36.3263158,47.359375 C36.1736842,47.0516827 36.1736842,46.5901442 36.1736842,46.2824519 C35.8684211,45.5132212 35.2578947,43.8209135 35.8684211,43.2055288 C36.3263158,42.7439904 36.7842105,42.7439904 37.2421053,42.7439904 C37.7,42.7439904 38.3105263,42.8978365 38.7684211,42.5901442 C39.3789474,42.1286058 39.6842105,41.359375 40.1421053,40.8978365 C40.4473684,40.4362981 41.0578947,40.1286058 41.5157895,39.8209135 C42.5842105,39.359375 43.6526316,39.2055288 44.7210526,39.5132212 C45.1789474,39.6670673 45.7894737,39.8209135 46.0947368,40.2824519 C46.4,40.5901442 46.5526316,41.0516827 47.0105263,41.2055288 C47.7736842,41.359375 48.0789474,40.8978365 48.2315789,40.2824519 C48.3842105,39.6670673 48.6894737,38.8978365 49.4526316,39.5132212 C49.9105263,39.8209135 49.9105263,40.5901442 49.9105263,41.0516827 C49.9105263,41.5132212 49.7578947,41.9747596 49.9105263,42.4362981 C50.2157895,43.5132212 51.1315789,44.2824519 52.0473684,44.8978365 C54.4894737,46.5901442 57.5421053,47.9747596 60.5947368,47.359375 C60.7473684,47.359375 60.9,47.2055288 61.0526316,47.359375 C61.2052632,47.359375 61.3578947,47.5132212 61.5105263,47.6670673 C61.5105263,47.8209135 61.5105263,47.8209135 61.5105263,47.9747596 C61.6631579,48.2824519 62.4263158,48.5901442 62.7315789,48.7439904 C63.1894737,49.0516827 63.6473684,49.5132212 64.1052632,49.9747596 C65.0210526,50.7439904 65.7842105,51.8209135 66.2421053,52.8978365 C67.4631579,55.0516827 68.0736842,57.359375 67.9210526,59.8209135 C67.9210526,61.5132212 67.7684211,63.2055288 67.9210526,64.7439904 C67.9210526,65.0516827 68.0736842,65.359375 68.2263158,65.5132212 C68.3789474,65.8209135 68.3789474,65.9747596 68.5315789,66.2824519 C68.6842105,66.7439904 68.9894737,67.359375 69.2947368,67.8209135 C69.9052632,68.7439904 70.5157895,69.6670673 71.4315789,70.4362981 C72.0421053,70.8978365 72.5,71.359375 73.1105263,71.8209135 C73.4157895,71.9747596 73.7210526,72.2824519 74.0263158,72.4362981 C74.1789474,72.5901442 74.3315789,72.5901442 74.4842105,72.7439904 C74.6368421,73.0516827 74.3315789,73.359375 74.0263158,73.6670673 C73.7210526,73.8209135 73.4157895,73.8209135 72.9578947,73.8209135 C72.6526316,73.8209135 72.3473684,73.6670673 71.8894737,73.6670673 C71.7368421,73.6670673 71.7368421,73.6670673 71.5842105,73.6670673 C71.4315789,73.6670673 71.4315789,73.6670673 71.2789474,73.8209135 C71.1263158,73.9747596 70.9736842,74.4362981 70.8210526,74.5901442 C70.6684211,74.8978365 70.6684211,75.2055288 70.5157895,75.5132212 L69.6,77.6670673 C68.9894737,79.2055288 68.3789474,80.5901442 67.7684211,82.1286058 C67.6157895,82.5901442 67.3105263,83.2055288 67.1578947,83.6670673 C66.5473684,85.359375 65.3263158,86.8978365 63.9526316,87.9747596 C61.8157895,89.8209135 59.6789474,91.6670673 57.0842105,92.5901442 C51.1315789,94.8978365 48.5368421,103.820913 48.2315789,104.436298 C47.7736842,105.359375 47.7736842,106.436298 47.9263158,107.359375 C48.0789474,107.97476 48.3842105,108.74399 48.8421053,109.205529 C49.3,109.667067 52.6578947,111.667067 53.1157895,112.436298 C53.4210526,112.74399 53.7263158,113.359375 53.7263158,113.820913 C53.8789474,115.051683 53.2684211,116.436298 52.9631579,117.667067 C52.6578947,118.897837 52.3526316,120.128606 52.0473684,121.359375 C51.7421053,122.74399 51.2842105,124.282452 50.9789474,125.667067 C48.8421053,133.820913 46.8578947,141.97476 45.0263158,150.128606 C43.9578947,155.205529 43.3473684,160.436298 43.3473684,165.667067 C44.2631579,166.128606 45.1789474,166.74399 46.0947368,167.205529 C45.9421053,161.359375 46.2473684,155.513221 47.3157895,149.820913 C49.6052632,137.667067 52.6578947,125.820913 56.6263158,114.128606 C64.4105263,113.051683 71.7368421,109.97476 77.9947368,105.205529 C78.3,104.897837 78.7578947,104.74399 79.0631579,104.436298 C81.9631579,102.128606 84.8631579,99.8209135 87.6105263,97.359375 C88.9842105,96.1286058 90.3578947,94.8978365 91.7315789,93.6670673 C92.3421053,93.0516827 93.1052632,92.4362981 93.7157895,91.8209135 C94.3263158,91.2055288 94.4789474,90.7439904 95.3947368,90.8978365 C95.5473684,90.8978365 95.8526316,90.8978365 96.0052632,91.0516827 C96.3105263,91.359375 96.3105263,91.9747596 96.4631579,92.4362981 C96.6157895,94.7439904 96.7684211,96.8978365 96.9210526,99.2055288 C96.9210526,100.436298 97.0736842,101.513221 97.0736842,102.74399 C97.0736842,103.513221 97.2263158,104.128606 96.7684211,104.74399 C96.3105263,105.820913 95.7,106.74399 94.9368421,107.513221 C94.1736842,108.282452 87.9157895,115.051683 87.6105263,115.667067 C87.3052632,116.128606 86.8473684,116.590144 87,117.205529 C87.3052632,118.282452 88.6789474,117.051683 88.9842105,116.74399 C89.5947368,116.128606 90.3578947,115.667067 90.9684211,115.051683 C91.7315789,114.128606 92.6473684,113.359375 93.5631579,112.590144 C94.1736842,111.97476 95.0894737,111.051683 96.0052632,111.359375 C97.2263158,111.820913 96.6157895,114.282452 96.6157895,115.359375 C96.4631579,116.897837 96.3105263,118.436298 96.1578947,120.128606 C95.7,123.205529 95.0894737,126.436298 94.1736842,129.359375 C93.2578947,132.74399 92.1894737,136.128606 91.1210526,139.513221 C90.5105263,141.205529 90.0526316,142.897837 89.4421053,144.436298 C89.1368421,145.205529 88.8315789,146.128606 88.5263158,146.897837 C88.2210526,147.513221 87.7631579,147.820913 87.3052632,148.128606 C86.8473684,148.436298 86.2368421,148.590144 85.7789474,148.74399 C84.7105263,149.205529 83.7947368,149.667067 82.7263158,150.128606 C80.7421053,151.051683 78.7578947,151.820913 76.7736842,152.74399 C74.6368421,153.667067 72.5,154.590144 70.3631579,155.667067 C69.4473684,156.128606 68.5315789,156.436298 67.6157895,156.897837 C66.8526316,157.205529 65.6315789,157.513221 64.8684211,158.128606 C64.5631579,158.436298 64.2578947,158.590144 64.1052632,159.051683 C64.1052632,159.051683 64.1052632,159.205529 64.1052632,159.205529 C63.6473684,160.282452 64.4105263,161.667067 64.7157895,162.74399 C65.1736842,164.128606 65.6315789,165.359375 65.9368421,166.74399 C66.7,169.359375 67.3105263,171.97476 67.9210526,174.74399 C67.9210526,174.74399 67.9210526,174.897837 67.9210526,174.897837 C67.9210526,175.051683 67.9210526,175.205529 67.9210526,175.359375 C73.8736842,176.74399 80.1315789,177.359375 86.5421053,177.359375 C124.547368,177.359375 156.905263,152.74399 168.657895,118.436298 L132.331579,76.5901442 C132.484211,75.5132212 132.636842,74.8978365 132.942105,74.5901442 Z M18.1631579,99.2055288 C18.1631579,99.359375 18.0105263,99.359375 18.0105263,99.5132212 C17.5526316,99.8209135 17.0947368,99.8209135 16.6368421,99.9747596 C16.1789474,100.128606 15.7210526,100.436298 15.4157895,100.74399 C14.6526316,101.359375 14.0421053,102.282452 13.8894737,103.205529 C13.5842105,104.282452 13.7368421,105.513221 14.3473684,106.590144 C14.6526316,107.051683 14.9578947,107.513221 15.4157895,107.97476 C15.7210526,108.282452 16.4842105,108.590144 16.3315789,109.205529 C16.3315789,109.205529 16.3315789,109.359375 16.3315789,109.359375 C16.0263158,109.667067 15.1105263,109.513221 14.8052632,109.513221 C11.9052632,109.051683 9.92105263,106.128606 10.5315789,103.205529 C11.2947368,100.590144 13.4315789,98.7439904 16.0263158,98.4362981 C16.4842105,98.4362981 18.4684211,98.4362981 18.4684211,98.8978365 C18.3157895,99.0516827 18.3157895,99.0516827 18.1631579,99.2055288 Z M36.7842105,82.5901442 C36.4789474,83.0516827 35.8684211,83.5132212 35.4105263,83.6670673 C35.1052632,83.8209135 34.8,83.9747596 34.6473684,84.2824519 C33.5789474,85.6670673 33.7315789,87.359375 33.2736842,88.8978365 C32.6631579,90.5901442 32.2052632,92.1286058 31.4421053,93.6670673 C30.8315789,94.8978365 30.0684211,95.9747596 29.3052632,97.2055288 C28.6947368,98.1286058 27.1684211,99.359375 27.4736842,100.590144 C27.6263158,101.051683 27.9315789,101.205529 28.2368421,101.667067 L30.0684211,104.128606 C30.9842105,105.359375 31.5947368,106.590144 31.9,108.128606 C31.9,108.128606 31.9,108.282452 31.9,108.282452 C31.7473684,108.590144 31.5947368,108.590144 31.2894737,108.590144 C29.6105263,107.513221 29.3052632,105.051683 27.4736842,104.128606 C26.7105263,103.667067 25.7947368,104.128606 25.1842105,104.590144 C24.4210526,105.205529 23.6578947,105.820913 22.8947368,106.436298 C22.4368421,106.897837 21.9789474,107.051683 21.5210526,107.359375 C21.2157895,107.513221 20.3,107.820913 20.1473684,107.513221 C19.9947368,107.359375 20.1473684,107.205529 20.1473684,107.051683 C20.4526316,106.590144 21.0631579,106.282452 21.3684211,105.820913 C21.8263158,105.051683 22.2842105,104.282452 22.5894737,103.359375 C23.0473684,102.282452 22.8947368,100.74399 22.1315789,99.8209135 C21.8263158,99.5132212 21.5210526,99.359375 21.5210526,98.8978365 C21.5210526,98.7439904 21.5210526,98.7439904 21.6736842,98.5901442 C21.9789474,98.1286058 22.4368421,98.1286058 22.7421053,98.2824519 C23.0473684,98.2824519 23.2,98.4362981 23.5052632,98.4362981 C23.8105263,98.4362981 24.1157895,98.2824519 24.4210526,98.2824519 C24.5736842,98.2824519 24.5736842,98.2824519 24.7263158,98.2824519 C24.8789474,98.2824519 24.8789474,98.1286058 25.0315789,98.1286058 C27.4736842,96.2824519 29,93.5132212 29.9157895,90.5901442 C30.5263158,88.4362981 31.4421053,86.2824519 32.6631579,84.4362981 C33.5789474,82.8978365 34.9526316,81.6670673 36.4789474,80.8978365 C36.7842105,80.7439904 37.0894737,81.2055288 37.0894737,81.5132212 C37.2421053,81.8209135 37.0894737,82.2824519 36.7842105,82.5901442 Z M38.1578947,72.5901442 C38.6157895,72.7439904 38.9210526,73.0516827 39.2263158,73.359375 C39.6842105,73.8209135 40.1421053,74.2824519 40.4473684,74.7439904 C40.6,74.8978365 40.7526316,75.2055288 40.4473684,75.359375 C40.2947368,75.5132212 39.9894737,75.5132212 39.6842105,75.359375 C39.2263158,74.8978365 38.4631579,74.5901442 37.7,74.4362981 C37.0894737,74.4362981 36.6315789,74.5901442 36.1736842,75.0516827 C35.8684211,75.359375 35.4105263,75.8209135 34.8,75.5132212 C34.1894737,75.2055288 34.4947368,74.5901442 34.6473684,74.1286058 C34.8,73.8209135 34.9526316,73.5132212 35.1052632,73.2055288 C35.2578947,72.8978365 35.4105263,72.2824519 35.7157895,71.9747596 C35.7157895,71.9747596 35.8684211,71.8209135 36.0210526,71.8209135 C36.7842105,72.1286058 37.7,72.4362981 38.1578947,72.5901442 Z M36.0210526,63.5132212 C36.1736842,64.5901442 36.4789474,65.6670673 36.6315789,66.7439904 C36.7842105,67.5132212 37.2421053,68.7439904 36.9368421,69.6670673 C36.7842105,70.1286058 36.1736842,70.1286058 35.8684211,70.2824519 C35.4105263,70.4362981 34.9526316,70.7439904 34.4947368,71.0516827 C33.4263158,71.9747596 32.9684211,73.359375 32.9684211,74.8978365 C32.9684211,75.8209135 32.9684211,76.7439904 32.9684211,77.5132212 C32.9684211,78.1286058 33.2736842,79.359375 32.8157895,79.9747596 C32.8157895,79.9747596 32.8157895,79.9747596 32.8157895,79.9747596 C32.8157895,79.9747596 32.8157895,79.9747596 32.6631579,79.9747596 C31.7473684,79.8209135 30.6789474,79.2055288 29.9157895,78.5901442 C29.4578947,78.2824519 29,77.8209135 28.8473684,77.359375 C28.6947368,76.7439904 29,76.2824519 29.3052632,75.8209135 C29.7631579,75.0516827 29.4578947,74.4362981 28.6947368,74.1286058 C28.2368421,73.9747596 27.6263158,73.6670673 27.1684211,73.359375 C26.2526316,72.7439904 25.3368421,71.9747596 24.7263158,71.0516827 C23.9631579,69.9747596 23.2,68.8978365 22.4368421,67.8209135 C21.8263158,66.8978365 21.0631579,65.9747596 21.8263158,64.8978365 C22.2842105,64.2824519 22.7421053,63.8209135 23.2,63.359375 C23.8105263,62.7439904 24.4210526,62.2824519 24.7263158,61.5132212 C24.7263158,61.359375 24.7263158,61.2055288 24.7263158,61.0516827 C24.5736842,60.7439904 24.2684211,60.4362981 23.9631579,60.2824519 C23.6578947,59.8209135 23.2,59.5132212 22.8947368,59.2055288 C22.1315789,58.4362981 21.0631579,57.6670673 20.4526316,56.7439904 C19.8421053,55.8209135 20.3,55.2055288 20.6052632,54.4362981 C20.9105263,53.8209135 21.0631579,53.2055288 21.2157895,52.5901442 C21.6736842,51.359375 21.2157895,50.1286058 21.5210526,49.0516827 C21.8263158,48.4362981 22.5894737,48.4362981 23.2,48.2824519 C23.9631579,48.1286058 24.7263158,47.9747596 25.4894737,47.9747596 C27.0157895,47.9747596 28.5421053,48.2824519 29.9157895,48.8978365 C30.8315789,49.359375 31.9,49.6670673 32.9684211,50.1286058 C33.5789474,50.4362981 34.3421053,50.5901442 34.9526316,50.8978365 C35.2578947,51.0516827 35.5631579,51.2055288 35.5631579,51.5132212 C35.7157895,51.8209135 35.5631579,52.2824519 35.4105263,52.7439904 C35.2578947,53.2055288 35.2578947,53.6670673 35.1052632,54.1286058 C34.9526316,55.0516827 34.8,56.1286058 34.8,57.0516827 C34.8,58.1286058 35.1052632,59.2055288 35.2578947,60.2824519 C35.5631579,61.2055288 35.7157895,62.2824519 36.0210526,63.5132212 Z M59.5263158,96.5901442 L59.3736842,99.359375 C59.3736842,100.436298 59.2210526,101.513221 59.2210526,102.74399 C59.2210526,103.359375 58.6105263,110.282452 57.2368421,109.667067 C57.2368421,109.667067 57.2368421,109.667067 57.2368421,109.667067 C57.2368421,109.667067 57.2368421,109.667067 57.2368421,109.667067 C56.9315789,108.282452 57.6947368,105.205529 58,103.205529 C58.1526316,101.667067 58.1526316,100.128606 58.1526316,98.7439904 C58.1526316,97.5132212 58,95.9747596 58.4578947,94.7439904 C58.4578947,94.7439904 58.4578947,94.5901442 58.4578947,94.5901442 C58.6105263,94.2824519 58.9157895,93.9747596 59.2210526,93.9747596 C59.3736842,93.9747596 59.5263158,94.1286058 59.6789474,94.2824519 C59.9842105,94.8978365 59.6789474,95.9747596 59.5263158,96.5901442 Z M97.3789474,85.359375 C97.2263158,85.359375 97.2263158,85.359375 97.0736842,85.359375 C96.4631579,85.0516827 96.4631579,83.2055288 96.4631579,82.5901442 C96.4631579,81.5132212 96.6157895,80.5901442 97.0736842,79.5132212 C97.6842105,77.8209135 98.7526316,76.4362981 99.9736842,75.0516827 C100.584211,74.4362981 101.194737,73.8209135 101.957895,73.2055288 C102.721053,72.5901442 105.163158,71.8209135 106.078947,71.8209135 C107.605263,71.8209135 108.368421,71.359375 108.978947,71.2055288 C110.047368,70.7439904 110.2,69.2055288 110.505263,68.2824519 C110.810526,66.8978365 111.268421,65.359375 111.878947,64.1286058 C112.184211,63.5132212 112.336842,62.8978365 112.642105,62.4362981 C112.794737,61.9747596 112.947368,61.5132212 113.405263,61.2055288 C114.168421,60.4362981 115.389474,60.4362981 116.305263,60.1286058 C117.221053,59.8209135 118.136842,59.5132212 119.052632,59.359375 C119.968421,59.0516827 120.884211,58.7439904 121.8,58.4362981 C122.715789,58.1286058 123.478947,57.6670673 124.394737,57.6670673 C124.547368,57.6670673 124.7,57.6670673 124.852632,57.6670673 C125.005263,57.8209135 125.005263,57.8209135 125.005263,57.9747596 C125.157895,58.5901442 125.005263,59.0516827 124.852632,59.6670673 C124.7,60.2824519 124.7,61.0516827 124.547368,61.6670673 C124.394737,63.0516827 124.089474,64.4362981 123.784211,65.8209135 C123.173684,68.5901442 122.410526,71.2055288 121.494737,73.8209135 C121.036842,74.8978365 120.731579,76.2824519 120.121053,77.2055288 C119.510526,78.1286058 118.594737,78.7439904 117.373684,78.7439904 C116.763158,78.7439904 116.305263,78.7439904 115.694737,78.5901442 C114.321053,78.2824519 113.1,78.8978365 112.336842,79.9747596 C111.421053,81.0516827 110.657895,82.1286058 109.894737,83.2055288 C107.3,87.0516827 104.857895,91.0516827 102.721053,95.2055288 C102.415789,95.8209135 101.957895,96.4362981 101.652632,97.0516827 C101.347368,97.5132212 101.042105,98.1286058 100.584211,98.4362981 C100.431579,98.5901442 100.278947,98.4362981 99.9736842,98.4362981 C99.2105263,98.1286058 98.9052632,97.2055288 98.7526316,96.4362981 C98.6,95.5132212 98.6,94.8978365 98.4473684,93.359375 C98.1421053,91.359375 97.9894737,89.8209135 98.9052632,87.9747596 C100.126316,85.9747596 101.805263,84.2824519 103.789474,83.0516827 C105.926316,81.9747596 107.757895,80.2824519 108.826316,78.1286058 C109.284211,77.359375 109.436842,76.2824519 109.436842,75.359375 C109.436842,74.8978365 109.589474,73.359375 108.978947,72.8978365 C108.521053,72.5901442 107.3,73.0516827 106.842105,73.2055288 C106.231579,73.359375 105.468421,73.6670673 104.857895,73.9747596 C103.789474,74.5901442 102.263158,75.5132212 101.652632,76.5901442 C100.736842,78.1286058 99.8210526,79.8209135 99.2105263,81.5132212 C99.2105263,82.1286058 98.2947368,85.2055288 97.3789474,85.359375 Z M128.210526,77.0516827 C127.6,77.359375 127.142105,78.4362981 126.989474,78.8978365 C126.531579,79.8209135 126.226316,80.8978365 126.073684,81.8209135 C125.768421,82.8978365 125.463158,83.9747596 124.852632,85.0516827 C124.547368,85.6670673 124.089474,86.2824519 123.478947,86.7439904 C122.563158,87.359375 121.494737,87.8209135 120.578947,88.4362981 C119.510526,89.2055288 118.594737,89.9747596 117.526316,90.7439904 C113.710526,93.6670673 111.421053,98.2824519 111.573684,103.051683 C111.573684,112.590144 110.352632,121.820913 104.705263,129.513221 C103.942105,130.590144 102.568421,132.282452 101.957895,133.359375 C101.347368,134.436298 100.278947,135.667067 99.6684211,136.74399 C99.0578947,137.820913 95.3947368,142.282452 94.9368421,143.513221 C94.4789474,144.74399 92.4947368,149.051683 92.0368421,150.128606 C91.5789474,151.205529 91.1210526,152.282452 90.6631579,153.359375 C89.5947368,155.513221 88.5263158,157.667067 87.3052632,159.667067 C84.8631579,163.667067 81.8105263,167.513221 78.6052632,170.897837 C77.8421053,171.820913 76.9263158,172.590144 76.0105263,173.359375 C75.5526316,173.820913 74.6368421,174.897837 74.0263158,174.897837 C73.8736842,174.897837 73.8736842,174.897837 73.7210526,174.74399 C73.4157895,174.590144 73.2631579,174.436298 73.1105263,174.282452 C72.9578947,174.128606 72.9578947,173.820913 73.1105263,173.513221 C73.2631579,172.897837 74.0263158,172.590144 74.4842105,172.128606 C75.8578947,170.74399 77.2315789,169.359375 78.3,167.820913 C89.7473684,153.97476 96.7684211,137.205529 98.7526316,119.359375 C98.9052632,117.359375 99.0578947,115.205529 99.0578947,113.205529 C99.0578947,109.359375 100.431579,105.667067 103.026316,102.897837 L108.368421,96.7439904 C110.505263,94.4362981 112.489474,91.9747596 114.321053,89.359375 C114.626316,89.0516827 114.778947,88.5901442 115.084211,88.1286058 C115.694737,86.7439904 116,85.359375 116,83.8209135 C116,83.2055288 116.152632,82.4362981 115.847368,81.9747596 C115.542105,81.359375 115.084211,81.0516827 115.236842,80.2824519 C115.236842,80.2824519 115.236842,80.1286058 115.389474,80.1286058 C115.389474,80.1286058 115.389474,80.1286058 115.542105,80.1286058 C115.694737,80.1286058 115.694737,80.1286058 115.847368,80.1286058 C116.305263,80.1286058 116.763158,80.2824519 117.068421,80.4362981 C117.526316,80.8978365 117.984211,81.359375 118.289474,81.9747596 C119.052632,83.359375 121.036842,81.6670673 121.494737,80.8978365 C122.410526,78.8978365 123.021053,76.5901442 123.326316,74.2824519 C123.478947,73.0516827 123.784211,71.8209135 124.547368,70.8978365 C124.852632,70.4362981 125.157895,69.9747596 125.615789,69.6670673 C125.921053,69.5132212 126.684211,68.8978365 126.989474,69.2055288 C127.142105,69.359375 127.142105,69.5132212 127.142105,69.6670673 C126.836842,70.2824519 126.378947,70.7439904 126.073684,71.359375 C125.615789,72.1286058 125.615789,72.8978365 125.768421,73.6670673 C125.921053,73.8209135 125.921053,73.8209135 126.073684,73.6670673 C126.378947,73.5132212 126.531579,73.2055288 126.684211,73.0516827 C126.989474,72.5901442 127.447368,71.5132212 128.210526,71.8209135 C129.584211,72.2824519 127.6,73.9747596 127.142105,74.4362981 C126.531579,75.0516827 126.226316,75.8209135 126.073684,76.5901442 C126.073684,76.8978365 126.226316,77.2055288 126.531579,77.2055288 C126.684211,77.2055288 126.836842,77.0516827 126.989474,76.8978365 L127.142105,76.7439904 C127.447368,76.4362981 127.752632,76.2824519 128.210526,76.1286058 C128.363158,76.1286058 128.515789,75.9747596 128.821053,76.1286058 C128.973684,76.1286058 129.126316,76.4362981 128.973684,76.5901442 C128.515789,76.8978365 128.363158,76.8978365 128.210526,77.0516827 Z" id="Shape" fill="#B13A25"></path>
            <g opacity="0.17" transform="translate(0.000000, 0.359375)" id="Shape">
                <path d="M132.942105,73.2626087 C133.4,72.9547826 134.010526,72.9547826 134.315789,73.4165217 L169.726316,114.357391 C171.557895,108.662609 172.778947,102.66 173.389474,96.5034783 L135.842105,71.2617391 C135.384211,70.953913 135.231579,70.3382609 135.536842,69.8765217 C135.842105,69.4147826 136.452632,69.2608696 136.910526,69.5686957 L173.694737,94.1947826 C173.847368,92.04 174,89.8852174 174,87.7304348 C174,86.3452174 174,84.806087 173.847368,83.4208696 L137.215789,67.106087 C136.757895,66.9521739 136.452632,66.3365217 136.757895,65.7208696 C136.910526,65.2591304 137.521053,64.9513043 138.131579,65.2591304 L173.847368,81.1121739 C173.389474,75.4173913 172.473684,69.7226087 170.947368,64.3356522 L138.284211,63.1043478 C137.673684,63.1043478 137.215789,62.6426087 137.368421,62.0269565 C137.368421,61.4113043 137.826316,61.1034783 138.436842,61.1034783 L170.336842,62.3347826 C169.115789,58.1791304 167.436842,54.0234783 165.605263,50.1756522 L137.521053,58.3330435 C137.368421,58.3330435 137.368421,58.3330435 137.215789,58.3330435 C136.757895,58.3330435 136.3,58.0252174 136.3,57.5634783 C136.147368,56.9478261 136.452632,56.486087 137.063158,56.3321739 L164.842105,48.3286957 C163.163158,45.0965217 161.331579,41.8643478 159.347368,38.786087 L135.536842,53.8695652 C135.384211,54.0234783 135.231579,54.0234783 134.926316,54.0234783 C134.621053,54.0234783 134.315789,53.8695652 134.010526,53.5617391 C133.705263,53.1 133.857895,52.4843478 134.315789,52.1765217 L157.668421,37.0930435 C142.1,14.6217391 116.305263,0 87,0 C38.9210526,0 0,39.2478261 0,87.7304348 C0,109.432174 7.93684211,129.286957 20.9105263,144.678261 C21.5210526,142.523478 22.1315789,140.522609 22.8947368,138.367826 C24.1157895,135.597391 24.8789474,132.673043 25.4894737,129.748696 C25.3368421,127.132174 25.7947368,124.515652 26.7105263,122.053043 C27.3210526,120.513913 28.0842105,118.974783 28.6947368,117.435652 C28.8473684,116.973913 31.5947368,111.125217 31.9,110.817391 C32.2052632,110.509565 32.6631579,109.74 33.1210526,110.355652 C33.5789474,110.817391 33.4263158,112.048696 33.4263158,112.510435 C33.4263158,113.28 33.5789474,114.203478 33.5789474,114.973043 C33.7315789,116.666087 33.8842105,118.35913 33.8842105,120.052174 C34.0368421,123.284348 34.1894737,126.516522 34.1894737,129.902609 C34.1894737,133.134783 34.1894737,136.366957 34.1894737,139.59913 C34.3421053,145.293913 34.9526316,150.988696 36.1736842,156.529565 C36.3263158,157.453043 36.6315789,158.376522 36.7842105,159.146087 C37.7,159.761739 38.4631579,160.377391 39.3789474,160.993043 C38.9210526,159.146087 38.4631579,157.29913 38.0052632,155.452174 C37.2421053,151.450435 36.7842105,147.602609 36.6315789,143.60087 C36.4789474,140.368696 35.5631579,119.128696 35.2578947,116.666087 C35.1052632,115.742609 34.9526316,114.81913 34.9526316,113.895652 L34.6473684,111.27913 C34.4947368,110.509565 34.3421053,109.74 34.6473684,108.816522 C34.9526316,108.046957 35.5631579,107.431304 36.1736842,106.815652 C36.9368421,106.046087 37.3947368,104.814783 38.0052632,103.891304 C39.2263158,102.198261 40.2947368,100.197391 41.2105263,98.3504348 C41.6684211,97.2730435 41.9736842,96.0417391 41.9736842,94.9643478 C41.9736842,94.3486957 41.9736842,93.7330435 41.8210526,93.1173913 C41.6684211,92.6556522 41.6684211,92.3478261 41.5157895,91.886087 C41.5157895,91.7321739 41.3631579,91.7321739 41.3631579,91.5782609 C41.0578947,90.9626087 40.4473684,90.1930435 39.9894737,89.5773913 C39.0736842,88.8078261 38.4631579,88.0382609 37.7,86.9608696 C37.0894737,86.1913043 36.1736842,85.2678261 36.7842105,84.3443478 C37.0894737,83.7286957 38.3105263,83.7286957 38.9210526,83.7286957 C40.2947368,83.8826087 41.6684211,84.0365217 43.0421053,84.0365217 C43.8052632,84.0365217 44.4157895,83.7286957 44.8736842,83.1130435 C45.1789474,82.6513043 45.1789474,81.573913 45.1789474,81.1121739 C45.1789474,80.4965217 45.1789474,79.7269565 45.1789474,79.1113043 C45.0263158,77.726087 44.7210526,76.4947826 44.2631579,75.2634783 C43.1947368,72.6469565 41.5157895,70.953913 39.3789474,69.2608696 C39.2263158,69.1069565 39.2263158,69.1069565 39.0736842,68.9530435 C38.9210526,68.7991304 38.7684211,68.4913043 38.6157895,68.1834783 C38.3105263,67.413913 38.3105263,66.4904348 38.1578947,65.5669565 C37.7,61.2573913 37.8526316,56.793913 38.6157895,52.4843478 C39.0736842,49.406087 41.2105263,46.9434783 44.1105263,45.866087 C44.1105263,45.866087 43.3473684,45.4043478 43.3473684,45.2504348 C43.0421053,45.0965217 42.7368421,44.9426087 42.4315789,44.9426087 C41.8210526,44.7886957 41.0578947,44.7886957 40.4473684,44.9426087 C39.8368421,45.0965217 39.0736842,45.4043478 38.6157895,45.7121739 C38.0052632,46.173913 38.0052632,46.7895652 37.0894737,46.9434783 C37.0894737,46.9434783 37.0894737,46.9434783 36.9368421,46.9434783 C36.9368421,46.9434783 36.7842105,46.9434783 36.7842105,46.9434783 C36.6315789,46.9434783 36.3263158,46.173913 36.3263158,46.02 C36.1736842,45.7121739 36.1736842,45.2504348 36.1736842,44.9426087 C35.8684211,44.1730435 35.2578947,42.48 35.8684211,41.8643478 C36.3263158,41.4026087 36.7842105,41.4026087 37.2421053,41.4026087 C37.7,41.4026087 38.3105263,41.5565217 38.7684211,41.2486957 C39.3789474,40.7869565 39.6842105,40.0173913 40.1421053,39.5556522 C40.4473684,39.093913 41.0578947,38.786087 41.5157895,38.4782609 C42.5842105,38.0165217 43.6526316,37.8626087 44.7210526,38.1704348 C45.1789474,38.3243478 45.7894737,38.4782609 46.0947368,38.94 C46.4,39.2478261 46.5526316,39.7095652 47.0105263,39.8634783 C47.7736842,40.0173913 48.0789474,39.5556522 48.2315789,38.94 C48.3842105,38.3243478 48.6894737,37.5547826 49.4526316,38.1704348 C49.9105263,38.4782609 49.9105263,39.2478261 49.9105263,39.7095652 C49.9105263,40.1713043 49.7578947,40.6330435 49.9105263,41.0947826 C50.2157895,42.1721739 51.1315789,42.9417391 52.0473684,43.5573913 C54.4894737,45.2504348 57.5421053,46.6356522 60.5947368,46.02 C60.7473684,46.02 60.9,45.866087 61.0526316,46.02 C61.2052632,46.02 61.3578947,46.173913 61.5105263,46.3278261 C61.5105263,46.4817391 61.5105263,46.4817391 61.5105263,46.6356522 C61.6631579,46.9434783 62.4263158,47.2513043 62.7315789,47.4052174 C63.1894737,47.7130435 63.6473684,48.1747826 64.1052632,48.6365217 C65.0210526,49.406087 65.7842105,50.4834783 66.2421053,51.5608696 C67.4631579,53.7156522 68.0736842,56.0243478 67.9210526,58.4869565 C67.9210526,60.18 67.7684211,61.8730435 67.9210526,63.4121739 C67.9210526,63.72 68.0736842,64.0278261 68.2263158,64.1817391 C68.3789474,64.4895652 68.3789474,64.6434783 68.5315789,64.9513043 C68.6842105,65.4130435 68.9894737,66.0286957 69.2947368,66.4904348 C69.9052632,67.413913 70.5157895,68.3373913 71.4315789,69.1069565 C72.0421053,69.5686957 72.5,70.0304348 73.1105263,70.4921739 C73.4157895,70.646087 73.7210526,70.953913 74.0263158,71.1078261 C74.1789474,71.2617391 74.3315789,71.2617391 74.4842105,71.4156522 C74.6368421,71.7234783 74.3315789,72.0313043 74.0263158,72.3391304 C73.7210526,72.4930435 73.4157895,72.4930435 72.9578947,72.4930435 C72.6526316,72.4930435 72.3473684,72.3391304 71.8894737,72.3391304 C71.7368421,72.3391304 71.7368421,72.3391304 71.5842105,72.3391304 C71.4315789,72.3391304 71.4315789,72.3391304 71.2789474,72.4930435 C71.1263158,72.6469565 70.9736842,73.1086957 70.8210526,73.2626087 C70.6684211,73.5704348 70.6684211,73.8782609 70.5157895,74.186087 L69.6,76.3408696 C68.9894737,77.88 68.3789474,79.2652174 67.7684211,80.8043478 C67.6157895,81.266087 67.3105263,81.8817391 67.1578947,82.3434783 C66.5473684,84.0365217 65.3263158,85.5756522 63.9526316,86.6530435 C61.8157895,88.5 59.6789474,90.3469565 57.0842105,91.2704348 C51.1315789,93.5791304 48.5368421,102.506087 48.2315789,103.121739 C47.7736842,104.045217 47.7736842,105.122609 47.9263158,106.046087 C48.0789474,106.661739 48.3842105,107.431304 48.8421053,107.893043 C49.3,108.354783 52.6578947,110.355652 53.1157895,111.125217 C53.4210526,111.433043 53.7263158,112.048696 53.7263158,112.510435 C53.8789474,113.741739 53.2684211,115.126957 52.9631579,116.358261 C52.6578947,117.589565 52.3526316,118.82087 52.0473684,120.052174 C51.7421053,121.437391 51.2842105,122.976522 50.9789474,124.361739 C48.8421053,132.51913 46.8578947,140.676522 45.0263158,148.833913 C43.9578947,153.913043 43.3473684,159.146087 43.3473684,164.37913 C44.2631579,164.84087 45.1789474,165.456522 46.0947368,165.918261 C45.9421053,160.069565 46.2473684,154.22087 47.3157895,148.526087 C49.6052632,136.366957 52.6578947,124.515652 56.6263158,112.818261 C64.4105263,111.74087 71.7368421,108.662609 77.9947368,103.891304 C78.3,103.583478 78.7578947,103.429565 79.0631579,103.121739 C81.9631579,100.813043 84.8631579,98.5043478 87.6105263,96.0417391 C88.9842105,94.8104348 90.3578947,93.5791304 91.7315789,92.3478261 C92.3421053,91.7321739 93.1052632,91.1165217 93.7157895,90.5008696 C94.3263158,89.8852174 94.4789474,89.4234783 95.3947368,89.5773913 C95.5473684,89.5773913 95.8526316,89.5773913 96.0052632,89.7313043 C96.3105263,90.0391304 96.3105263,90.6547826 96.4631579,91.1165217 C96.6157895,93.4252174 96.7684211,95.58 96.9210526,97.8886957 C96.9210526,99.12 97.0736842,100.197391 97.0736842,101.428696 C97.0736842,102.198261 97.2263158,102.813913 96.7684211,103.429565 C96.3105263,104.506957 95.7,105.430435 94.9368421,106.2 C94.1736842,106.969565 87.9157895,113.741739 87.6105263,114.357391 C87.3052632,114.81913 86.8473684,115.28087 87,115.896522 C87.3052632,116.973913 88.6789474,115.742609 88.9842105,115.434783 C89.5947368,114.81913 90.3578947,114.357391 90.9684211,113.741739 C91.7315789,112.818261 92.6473684,112.048696 93.5631579,111.27913 C94.1736842,110.663478 95.0894737,109.74 96.0052632,110.047826 C97.2263158,110.509565 96.6157895,112.972174 96.6157895,114.049565 C96.4631579,115.588696 96.3105263,117.127826 96.1578947,118.82087 C95.7,121.89913 95.0894737,125.131304 94.1736842,128.055652 C93.2578947,131.441739 92.1894737,134.827826 91.1210526,138.213913 C90.5105263,139.906957 90.0526316,141.6 89.4421053,143.13913 C89.1368421,143.908696 88.8315789,144.832174 88.5263158,145.601739 C88.2210526,146.217391 87.7631579,146.525217 87.3052632,146.833043 C86.8473684,147.14087 86.2368421,147.294783 85.7789474,147.448696 C84.7105263,147.910435 83.7947368,148.372174 82.7263158,148.833913 C80.7421053,149.757391 78.7578947,150.526957 76.7736842,151.450435 C74.6368421,152.373913 72.5,153.297391 70.3631579,154.374783 C69.4473684,154.836522 68.5315789,155.144348 67.6157895,155.606087 C66.8526316,155.913913 65.6315789,156.221739 64.8684211,156.837391 C64.5631579,157.145217 64.2578947,157.29913 64.1052632,157.76087 C64.1052632,157.76087 64.1052632,157.914783 64.1052632,157.914783 C63.6473684,158.992174 64.4105263,160.377391 64.7157895,161.454783 C65.1736842,162.84 65.6315789,164.071304 65.9368421,165.456522 C66.7,168.073043 67.3105263,170.689565 67.9210526,173.46 C67.9210526,173.46 67.9210526,173.613913 67.9210526,173.613913 C67.9210526,173.767826 67.9210526,173.921739 67.9210526,174.075652 C73.8736842,175.46087 80.1315789,176.076522 86.5421053,176.076522 C124.547368,176.076522 156.905263,151.450435 168.657895,117.127826 L132.331579,75.2634783 C131.969825,74.8465737 132.484211,73.5704348 132.942105,73.2626087 Z"></path>
            </g>
        </g>
    </g>
</svg>