<?xml version="1.0" encoding="UTF-8"?>
<svg width="326px" height="640px" viewBox="0 0 326 640" version="1.1" xmlns="http://www.w3.org/2000/svg" xmlns:xlink="http://www.w3.org/1999/xlink">
    <!-- Generator: Sketch 55 (78076) - https://sketchapp.com -->
    <title>splash</title>
    <desc>Created with Sketch.</desc>
    <defs>
        <filter x="-1.7%" y="-2.1%" width="103.3%" height="104.1%" filterUnits="objectBoundingBox" id="filter-1">
            <feOffset dx="0" dy="1" in="SourceAlpha" result="shadowOffsetOuter1"></feOffset>
            <feGaussianBlur stdDeviation="0.5" in="shadowOffsetOuter1" result="shadowBlurOuter1"></feGaussianBlur>
            <feColorMatrix values="0 0 0 0 0   0 0 0 0 0   0 0 0 0 0  0 0 0 0.5 0" type="matrix" in="shadowBlurOuter1" result="shadowMatrixOuter1"></feColorMatrix>
            <feMerge>
                <feMergeNode in="shadowMatrixOuter1"></feMergeNode>
                <feMergeNode in="SourceGraphic"></feMergeNode>
            </feMerge>
        </filter>
    </defs>
    <g id="splash" stroke="none" stroke-width="1" fill="none" fill-rule="evenodd">
        <rect fill="#333333" x="0" y="0" width="326" height="640"></rect>
        <g id="logo_h-04_v2-04" filter="url(#filter-1)" transform="translate(44.000000, 219.000000)" fill-rule="nonzero">
            <g id="Group" transform="translate(56.000000, 0.000000)">
                <path d="M97.7964912,53.8086957 C98.1333333,53.5826087 98.5824561,53.5826087 98.8070175,53.9217391 L124.85614,83.9913043 C126.203509,79.8086957 127.101754,75.4 127.550877,70.8782609 L99.9298246,52.3391304 C99.5929825,52.1130435 99.4807018,51.6608696 99.7052632,51.3217391 C99.9298246,50.9826087 100.378947,50.8695652 100.715789,51.0956522 L127.775439,69.1826087 C127.887719,67.6 128,66.0173913 128,64.4347826 C128,63.4173913 128,62.2869565 127.887719,61.2695652 L100.940351,49.2869565 C100.603509,49.173913 100.378947,48.7217391 100.603509,48.2695652 C100.715789,47.9304348 101.164912,47.7043478 101.614035,47.9304348 L127.887719,59.573913 C127.550877,55.3913043 126.877193,51.2086957 125.754386,47.2521739 L101.726316,46.3478261 C101.277193,46.3478261 100.940351,46.0086957 101.052632,45.5565217 C101.052632,45.1043478 101.389474,44.8782609 101.838596,44.8782609 L125.305263,45.7826087 C124.407018,42.7304348 123.17193,39.6782609 121.824561,36.8521739 L101.164912,42.8434783 C101.052632,42.8434783 101.052632,42.8434783 100.940351,42.8434783 C100.603509,42.8434783 100.266667,42.6173913 100.266667,42.2782609 C100.154386,41.826087 100.378947,41.4869565 100.82807,41.373913 L121.263158,35.4956522 C120.02807,33.1217391 118.680702,30.7478261 117.221053,28.4869565 L99.7052632,39.5652174 C99.5929825,39.6782609 99.4807018,39.6782609 99.2561404,39.6782609 C99.0315789,39.6782609 98.8070175,39.5652174 98.5824561,39.3391304 C98.3578947,39 98.4701754,38.5478261 98.8070175,38.3217391 L115.985965,27.2434783 C104.533333,10.7391304 85.5578947,0 64,0 C28.6315789,0 0,28.826087 0,64.4347826 C0,80.373913 5.83859649,94.9565217 15.3824561,106.26087 C15.8315789,104.678261 16.2807018,103.208696 16.8421053,101.626087 C17.7403509,99.5913043 18.3017544,97.4434783 18.7508772,95.2956522 C18.6385965,93.373913 18.9754386,91.4521739 19.6491228,89.6434783 C20.0982456,88.5130435 20.6596491,87.3826087 21.1087719,86.2521739 C21.2210526,85.9130435 23.2421053,81.6173913 23.4666667,81.3913043 C23.6912281,81.1652174 24.0280702,80.6 24.3649123,81.0521739 C24.7017544,81.3913043 24.5894737,82.2956522 24.5894737,82.6347826 C24.5894737,83.2 24.7017544,83.8782609 24.7017544,84.4434783 C24.8140351,85.6869565 24.9263158,86.9304348 24.9263158,88.173913 C25.0385965,90.5478261 25.1508772,92.9217391 25.1508772,95.4086957 C25.1508772,97.7826087 25.1508772,100.156522 25.1508772,102.530435 C25.2631579,106.713043 25.7122807,110.895652 26.6105263,114.965217 C26.722807,115.643478 26.9473684,116.321739 27.0596491,116.886957 C27.7333333,117.33913 28.2947368,117.791304 28.9684211,118.243478 C28.6315789,116.886957 28.2947368,115.530435 27.9578947,114.173913 C27.3964912,111.234783 27.0596491,108.408696 26.9473684,105.469565 C26.8350877,103.095652 26.1614035,87.4956522 25.9368421,85.6869565 C25.8245614,85.0086957 25.7122807,84.3304348 25.7122807,83.6521739 L25.4877193,81.7304348 C25.3754386,81.1652174 25.2631579,80.6 25.4877193,79.9217391 C25.7122807,79.3565217 26.1614035,78.9043478 26.6105263,78.4521739 C27.1719298,77.8869565 27.5087719,76.9826087 27.9578947,76.3043478 C28.8561404,75.0608696 29.6421053,73.5913043 30.3157895,72.2347826 C30.6526316,71.4434783 30.877193,70.5391304 30.877193,69.7478261 C30.877193,69.2956522 30.877193,68.8434783 30.7649123,68.3913043 C30.6526316,68.0521739 30.6526316,67.826087 30.5403509,67.4869565 C30.5403509,67.373913 30.4280702,67.373913 30.4280702,67.2608696 C30.2035088,66.8086957 29.754386,66.2434783 29.4175439,65.7913043 C28.7438596,65.226087 28.2947368,64.6608696 27.7333333,63.8695652 C27.2842105,63.3043478 26.6105263,62.626087 27.0596491,61.9478261 C27.2842105,61.4956522 28.1824561,61.4956522 28.6315789,61.4956522 C29.6421053,61.6086957 30.6526316,61.7217391 31.6631579,61.7217391 C32.2245614,61.7217391 32.6736842,61.4956522 33.0105263,61.0434783 C33.2350877,60.7043478 33.2350877,59.9130435 33.2350877,59.573913 C33.2350877,59.1217391 33.2350877,58.5565217 33.2350877,58.1043478 C33.122807,57.0869565 32.8982456,56.1826087 32.5614035,55.2782609 C31.7754386,53.3565217 30.5403509,52.1130435 28.9684211,50.8695652 C28.8561404,50.7565217 28.8561404,50.7565217 28.7438596,50.6434783 C28.6315789,50.5304348 28.5192982,50.3043478 28.4070175,50.0782609 C28.1824561,49.5130435 28.1824561,48.8347826 28.0701754,48.1565217 C27.7333333,44.9913043 27.845614,41.7130435 28.4070175,38.5478261 C28.7438596,36.2869565 30.3157895,34.4782609 32.4491228,33.6869565 C32.4491228,33.6869565 31.8877193,33.3478261 31.8877193,33.2347826 C31.6631579,33.1217391 31.4385965,33.0086957 31.2140351,33.0086957 C30.7649123,32.8956522 30.2035088,32.8956522 29.754386,33.0086957 C29.3052632,33.1217391 28.7438596,33.3478261 28.4070175,33.573913 C27.9578947,33.9130435 27.9578947,34.3652174 27.2842105,34.4782609 C27.2842105,34.4782609 27.2842105,34.4782609 27.1719298,34.4782609 C27.1719298,34.4782609 27.0596491,34.4782609 27.0596491,34.4782609 C26.9473684,34.4782609 26.722807,33.9130435 26.722807,33.8 C26.6105263,33.573913 26.6105263,33.2347826 26.6105263,33.0086957 C26.3859649,32.4434783 25.9368421,31.2 26.3859649,30.7478261 C26.722807,30.4086957 27.0596491,30.4086957 27.3964912,30.4086957 C27.7333333,30.4086957 28.1824561,30.5217391 28.5192982,30.2956522 C28.9684211,29.9565217 29.1929825,29.3913043 29.5298246,29.0521739 C29.754386,28.7130435 30.2035088,28.4869565 30.5403509,28.2608696 C31.3263158,27.9217391 32.1122807,27.8086957 32.8982456,28.0347826 C33.2350877,28.1478261 33.6842105,28.2608696 33.9087719,28.6 C34.1333333,28.826087 34.245614,29.1652174 34.5824561,29.2782609 C35.1438596,29.3913043 35.3684211,29.0521739 35.4807018,28.6 C35.5929825,28.1478261 35.8175439,27.5826087 36.3789474,28.0347826 C36.7157895,28.2608696 36.7157895,28.826087 36.7157895,29.1652174 C36.7157895,29.5043478 36.6035088,29.8434783 36.7157895,30.1826087 C36.9403509,30.973913 37.6140351,31.5391304 38.2877193,31.9913043 C40.0842105,33.2347826 42.3298246,34.2521739 44.5754386,33.8 C44.6877193,33.8 44.8,33.6869565 44.9122807,33.8 C45.0245614,33.8 45.1368421,33.9130435 45.2491228,34.026087 C45.2491228,34.1391304 45.2491228,34.1391304 45.2491228,34.2521739 C45.3614035,34.4782609 45.922807,34.7043478 46.1473684,34.8173913 C46.4842105,35.0434783 46.8210526,35.3826087 47.1578947,35.7217391 C47.8315789,36.2869565 48.3929825,37.0782609 48.7298246,37.8695652 C49.6280702,39.4521739 50.077193,41.1478261 49.9649123,42.9565217 C49.9649123,44.2 49.8526316,45.4434783 49.9649123,46.573913 C49.9649123,46.8 50.077193,47.026087 50.1894737,47.1391304 C50.3017544,47.3652174 50.3017544,47.4782609 50.4140351,47.7043478 C50.5263158,48.0434783 50.7508772,48.4956522 50.9754386,48.8347826 C51.4245614,49.5130435 51.8736842,50.1913043 52.5473684,50.7565217 C52.9964912,51.0956522 53.3333333,51.4347826 53.7824561,51.773913 C54.0070175,51.8869565 54.2315789,52.1130435 54.4561404,52.226087 C54.5684211,52.3391304 54.6807018,52.3391304 54.7929825,52.4521739 C54.9052632,52.6782609 54.6807018,52.9043478 54.4561404,53.1304348 C54.2315789,53.2434783 54.0070175,53.2434783 53.6701754,53.2434783 C53.445614,53.2434783 53.2210526,53.1304348 52.8842105,53.1304348 C52.7719298,53.1304348 52.7719298,53.1304348 52.6596491,53.1304348 C52.5473684,53.1304348 52.5473684,53.1304348 52.4350877,53.2434783 C52.322807,53.3565217 52.2105263,53.6956522 52.0982456,53.8086957 C51.9859649,54.0347826 51.9859649,54.2608696 51.8736842,54.4869565 L51.2,56.0695652 C50.7508772,57.2 50.3017544,58.2173913 49.8526316,59.3478261 C49.7403509,59.6869565 49.5157895,60.1391304 49.4035088,60.4782609 C48.954386,61.7217391 48.0561404,62.8521739 47.045614,63.6434783 C45.4736842,65 43.9017544,66.3565217 41.9929825,67.0347826 C37.6140351,68.7304348 35.7052632,75.2869565 35.4807018,75.7391304 C35.1438596,76.4173913 35.1438596,77.2086957 35.2561404,77.8869565 C35.3684211,78.3391304 35.5929825,78.9043478 35.9298246,79.2434783 C36.2666667,79.5826087 38.7368421,81.0521739 39.0736842,81.6173913 C39.2982456,81.8434783 39.522807,82.2956522 39.522807,82.6347826 C39.6350877,83.5391304 39.1859649,84.5565217 38.9614035,85.4608696 C38.7368421,86.3652174 38.5122807,87.2695652 38.2877193,88.173913 C38.0631579,89.1913043 37.7263158,90.3217391 37.5017544,91.3391304 C35.9298246,97.3304348 34.4701754,103.321739 33.122807,109.313043 C32.3368421,113.043478 31.8877193,116.886957 31.8877193,120.730435 C32.5614035,121.069565 33.2350877,121.521739 33.9087719,121.86087 C33.7964912,117.565217 34.0210526,113.269565 34.8070175,109.086957 C36.4912281,100.156522 38.7368421,91.4521739 41.6561404,82.8608696 C47.3824561,82.0695652 52.7719298,79.8086957 57.3754386,76.3043478 C57.6,76.0782609 57.9368421,75.9652174 58.1614035,75.7391304 C60.2947368,74.0434783 62.4280702,72.3478261 64.4491228,70.5391304 C65.4596491,69.6347826 66.4701754,68.7304348 67.4807018,67.826087 C67.9298246,67.373913 68.4912281,66.9217391 68.9403509,66.4695652 C69.3894737,66.0173913 69.5017544,65.6782609 70.1754386,65.7913043 C70.2877193,65.7913043 70.5122807,65.7913043 70.6245614,65.9043478 C70.8491228,66.1304348 70.8491228,66.5826087 70.9614035,66.9217391 C71.0736842,68.6173913 71.1859649,70.2 71.2982456,71.8956522 C71.2982456,72.8 71.4105263,73.5913043 71.4105263,74.4956522 C71.4105263,75.0608696 71.522807,75.5130435 71.1859649,75.9652174 C70.8491228,76.7565217 70.4,77.4347826 69.8385965,78 C69.277193,78.5652174 64.6736842,83.5391304 64.4491228,83.9913043 C64.2245614,84.3304348 63.8877193,84.6695652 64,85.1217391 C64.2245614,85.9130435 65.2350877,85.0086957 65.4596491,84.7826087 C65.9087719,84.3304348 66.4701754,83.9913043 66.9192982,83.5391304 C67.4807018,82.8608696 68.154386,82.2956522 68.8280702,81.7304348 C69.277193,81.2782609 69.9508772,80.6 70.6245614,80.826087 C71.522807,81.1652174 71.0736842,82.973913 71.0736842,83.7652174 C70.9614035,84.8956522 70.8491228,86.026087 70.7368421,87.2695652 C70.4,89.5304348 69.9508772,91.9043478 69.277193,94.0521739 C68.6035088,96.5391304 67.8175439,99.026087 67.0315789,101.513043 C66.5824561,102.756522 66.245614,104 65.7964912,105.130435 C65.5719298,105.695652 65.3473684,106.373913 65.122807,106.93913 C64.8982456,107.391304 64.5614035,107.617391 64.2245614,107.843478 C63.8877193,108.069565 63.4385965,108.182609 63.1017544,108.295652 C62.3157895,108.634783 61.6421053,108.973913 60.8561404,109.313043 C59.3964912,109.991304 57.9368421,110.556522 56.477193,111.234783 C54.9052632,111.913043 53.3333333,112.591304 51.7614035,113.382609 C51.0877193,113.721739 50.4140351,113.947826 49.7403509,114.286957 C49.1789474,114.513043 48.2807018,114.73913 47.7192982,115.191304 C47.4947368,115.417391 47.2701754,115.530435 47.1578947,115.869565 C47.1578947,115.869565 47.1578947,115.982609 47.1578947,115.982609 C46.8210526,116.773913 47.3824561,117.791304 47.6070175,118.582609 C47.9438596,119.6 48.2807018,120.504348 48.5052632,121.521739 C49.0666667,123.443478 49.5157895,125.365217 49.9649123,127.4 C49.9649123,127.4 49.9649123,127.513043 49.9649123,127.513043 C49.9649123,127.626087 49.9649123,127.73913 49.9649123,127.852174 C54.3438596,128.869565 58.9473684,129.321739 63.6631579,129.321739 C91.6210526,129.321739 115.424561,111.234783 124.070175,86.026087 L97.3473684,55.2782609 C97.4596491,54.4869565 97.5719298,54.0347826 97.7964912,53.8086957 Z M13.3614035,71.8956522 C13.3614035,72.0086957 13.2491228,72.0086957 13.2491228,72.1217391 C12.9122807,72.3478261 12.5754386,72.3478261 12.2385965,72.4608696 C11.9017544,72.573913 11.5649123,72.8 11.3403509,73.026087 C10.7789474,73.4782609 10.3298246,74.1565217 10.2175439,74.8347826 C9.99298246,75.626087 10.1052632,76.5304348 10.554386,77.3217391 C10.7789474,77.6608696 11.0035088,78 11.3403509,78.3391304 C11.5649123,78.5652174 12.1263158,78.7913043 12.0140351,79.2434783 C12.0140351,79.2434783 12.0140351,79.3565217 12.0140351,79.3565217 C11.7894737,79.5826087 11.1157895,79.4695652 10.8912281,79.4695652 C8.75789474,79.1304348 7.29824561,76.9826087 7.74736842,74.8347826 C8.30877193,72.9130435 9.88070175,71.5565217 11.7894737,71.3304348 C12.1263158,71.3304348 13.5859649,71.3304348 13.5859649,71.6695652 C13.4736842,71.7826087 13.4736842,71.7826087 13.3614035,71.8956522 Z M27.0596491,59.6869565 C26.8350877,60.026087 26.3859649,60.3652174 26.0491228,60.4782609 C25.8245614,60.5913043 25.6,60.7043478 25.4877193,60.9304348 C24.7017544,61.9478261 24.8140351,63.1913043 24.477193,64.3217391 C24.0280702,65.5652174 23.6912281,66.6956522 23.1298246,67.826087 C22.6807018,68.7304348 22.1192982,69.5217391 21.5578947,70.426087 C21.1087719,71.1043478 19.9859649,72.0086957 20.2105263,72.9130435 C20.322807,73.2521739 20.5473684,73.3652174 20.7719298,73.7043478 L22.1192982,75.5130435 C22.7929825,76.4173913 23.2421053,77.3217391 23.4666667,78.4521739 C23.4666667,78.4521739 23.4666667,78.5652174 23.4666667,78.5652174 C23.354386,78.7913043 23.2421053,78.7913043 23.0175439,78.7913043 C21.7824561,78 21.5578947,76.1913043 20.2105263,75.5130435 C19.6491228,75.173913 18.9754386,75.5130435 18.5263158,75.8521739 C17.9649123,76.3043478 17.4035088,76.7565217 16.8421053,77.2086957 C16.5052632,77.5478261 16.1684211,77.6608696 15.8315789,77.8869565 C15.6070175,78 14.9333333,78.226087 14.8210526,78 C14.7087719,77.8869565 14.8210526,77.773913 14.8210526,77.6608696 C15.045614,77.3217391 15.4947368,77.0956522 15.7192982,76.7565217 C16.0561404,76.1913043 16.3929825,75.626087 16.6175439,74.9478261 C16.954386,74.1565217 16.8421053,73.026087 16.2807018,72.3478261 C16.0561404,72.1217391 15.8315789,72.0086957 15.8315789,71.6695652 C15.8315789,71.5565217 15.8315789,71.5565217 15.9438596,71.4434783 C16.1684211,71.1043478 16.5052632,71.1043478 16.7298246,71.2173913 C16.954386,71.2173913 17.0666667,71.3304348 17.2912281,71.3304348 C17.5157895,71.3304348 17.7403509,71.2173913 17.9649123,71.2173913 C18.077193,71.2173913 18.077193,71.2173913 18.1894737,71.2173913 C18.3017544,71.2173913 18.3017544,71.1043478 18.4140351,71.1043478 C20.2105263,69.7478261 21.3333333,67.7130435 22.0070175,65.5652174 C22.4561404,63.9826087 23.1298246,62.4 24.0280702,61.0434783 C24.7017544,59.9130435 25.7122807,59.0086957 26.8350877,58.4434783 C27.0596491,58.3304348 27.2842105,58.6695652 27.2842105,58.8956522 C27.3964912,59.1217391 27.2842105,59.4608696 27.0596491,59.6869565 Z M28.0701754,52.3391304 C28.4070175,52.4521739 28.6315789,52.6782609 28.8561404,52.9043478 C29.1929825,53.2434783 29.5298246,53.5826087 29.754386,53.9217391 C29.8666667,54.0347826 29.9789474,54.2608696 29.754386,54.373913 C29.6421053,54.4869565 29.4175439,54.4869565 29.1929825,54.373913 C28.8561404,54.0347826 28.2947368,53.8086957 27.7333333,53.6956522 C27.2842105,53.6956522 26.9473684,53.8086957 26.6105263,54.1478261 C26.3859649,54.373913 26.0491228,54.7130435 25.6,54.4869565 C25.1508772,54.2608696 25.3754386,53.8086957 25.4877193,53.4695652 C25.6,53.2434783 25.7122807,53.0173913 25.8245614,52.7913043 C25.9368421,52.5652174 26.0491228,52.1130435 26.2736842,51.8869565 C26.2736842,51.8869565 26.3859649,51.773913 26.4982456,51.773913 C27.0596491,52 27.7333333,52.226087 28.0701754,52.3391304 Z M26.4982456,45.6695652 C26.6105263,46.4608696 26.8350877,47.2521739 26.9473684,48.0434783 C27.0596491,48.6086957 27.3964912,49.5130435 27.1719298,50.1913043 C27.0596491,50.5304348 26.6105263,50.5304348 26.3859649,50.6434783 C26.0491228,50.7565217 25.7122807,50.9826087 25.3754386,51.2086957 C24.5894737,51.8869565 24.2526316,52.9043478 24.2526316,54.0347826 C24.2526316,54.7130435 24.2526316,55.3913043 24.2526316,55.9565217 C24.2526316,56.4086957 24.477193,57.3130435 24.1403509,57.7652174 C24.1403509,57.7652174 24.1403509,57.7652174 24.1403509,57.7652174 C24.1403509,57.7652174 24.1403509,57.7652174 24.0280702,57.7652174 C23.354386,57.6521739 22.5684211,57.2 22.0070175,56.7478261 C21.6701754,56.5217391 21.3333333,56.1826087 21.2210526,55.8434783 C21.1087719,55.3913043 21.3333333,55.0521739 21.5578947,54.7130435 C21.8947368,54.1478261 21.6701754,53.6956522 21.1087719,53.4695652 C20.7719298,53.3565217 20.322807,53.1304348 19.9859649,52.9043478 C19.3122807,52.4521739 18.6385965,51.8869565 18.1894737,51.2086957 C17.6280702,50.4173913 17.0666667,49.626087 16.5052632,48.8347826 C16.0561404,48.1565217 15.4947368,47.4782609 16.0561404,46.6869565 C16.3929825,46.2347826 16.7298246,45.8956522 17.0666667,45.5565217 C17.5157895,45.1043478 17.9649123,44.7652174 18.1894737,44.2 C18.1894737,44.0869565 18.1894737,43.973913 18.1894737,43.8608696 C18.077193,43.6347826 17.8526316,43.4086957 17.6280702,43.2956522 C17.4035088,42.9565217 17.0666667,42.7304348 16.8421053,42.5043478 C16.2807018,41.9391304 15.4947368,41.373913 15.045614,40.6956522 C14.5964912,40.0173913 14.9333333,39.5652174 15.1578947,39 C15.3824561,38.5478261 15.4947368,38.0956522 15.6070175,37.6434783 C15.9438596,36.7391304 15.6070175,35.8347826 15.8315789,35.0434783 C16.0561404,34.5913043 16.6175439,34.5913043 17.0666667,34.4782609 C17.6280702,34.3652174 18.1894737,34.2521739 18.7508772,34.2521739 C19.8736842,34.2521739 20.9964912,34.4782609 22.0070175,34.9304348 C22.6807018,35.2695652 23.4666667,35.4956522 24.2526316,35.8347826 C24.7017544,36.0608696 25.2631579,36.173913 25.7122807,36.4 C25.9368421,36.5130435 26.1614035,36.626087 26.1614035,36.8521739 C26.2736842,37.0782609 26.1614035,37.4173913 26.0491228,37.7565217 C25.9368421,38.0956522 25.9368421,38.4347826 25.8245614,38.773913 C25.7122807,39.4521739 25.6,40.2434783 25.6,40.9217391 C25.6,41.7130435 25.8245614,42.5043478 25.9368421,43.2956522 C26.1614035,43.973913 26.2736842,44.7652174 26.4982456,45.6695652 Z M43.7894737,69.973913 L43.677193,72.0086957 C43.677193,72.8 43.5649123,73.5913043 43.5649123,74.4956522 C43.5649123,74.9478261 43.1157895,80.0347826 42.1052632,79.5826087 C42.1052632,79.5826087 42.1052632,79.5826087 42.1052632,79.5826087 C42.1052632,79.5826087 42.1052632,79.5826087 42.1052632,79.5826087 C41.8807018,78.5652174 42.4421053,76.3043478 42.6666667,74.8347826 C42.7789474,73.7043478 42.7789474,72.573913 42.7789474,71.5565217 C42.7789474,70.6521739 42.6666667,69.5217391 43.0035088,68.6173913 C43.0035088,68.6173913 43.0035088,68.5043478 43.0035088,68.5043478 C43.1157895,68.2782609 43.3403509,68.0521739 43.5649123,68.0521739 C43.677193,68.0521739 43.7894737,68.1652174 43.9017544,68.2782609 C44.1263158,68.7304348 43.9017544,69.5217391 43.7894737,69.973913 Z M71.6350877,61.7217391 C71.522807,61.7217391 71.522807,61.7217391 71.4105263,61.7217391 C70.9614035,61.4956522 70.9614035,60.1391304 70.9614035,59.6869565 C70.9614035,58.8956522 71.0736842,58.2173913 71.4105263,57.426087 C71.8596491,56.1826087 72.645614,55.1652174 73.5438596,54.1478261 C73.9929825,53.6956522 74.4421053,53.2434783 75.0035088,52.7913043 C75.5649123,52.3391304 77.3614035,51.773913 78.0350877,51.773913 C79.1578947,51.773913 79.7192982,51.4347826 80.1684211,51.3217391 C80.954386,50.9826087 81.0666667,49.8521739 81.2912281,49.173913 C81.5157895,48.1565217 81.8526316,47.026087 82.3017544,46.1217391 C82.5263158,45.6695652 82.6385965,45.2173913 82.8631579,44.8782609 C82.9754386,44.5391304 83.0877193,44.2 83.4245614,43.973913 C83.9859649,43.4086957 84.8842105,43.4086957 85.5578947,43.1826087 C86.2315789,42.9565217 86.9052632,42.7304348 87.5789474,42.6173913 C88.2526316,42.3913043 88.9263158,42.1652174 89.6,41.9391304 C90.2736842,41.7130435 90.8350877,41.373913 91.5087719,41.373913 C91.6210526,41.373913 91.7333333,41.373913 91.845614,41.373913 C91.9578947,41.4869565 91.9578947,41.4869565 91.9578947,41.6 C92.0701754,42.0521739 91.9578947,42.3913043 91.845614,42.8434783 C91.7333333,43.2956522 91.7333333,43.8608696 91.6210526,44.3130435 C91.5087719,45.3304348 91.2842105,46.3478261 91.0596491,47.3652174 C90.6105263,49.4 90.0491228,51.3217391 89.3754386,53.2434783 C89.0385965,54.0347826 88.8140351,55.0521739 88.3649123,55.7304348 C87.9157895,56.4086957 87.2421053,56.8608696 86.3438596,56.8608696 C85.8947368,56.8608696 85.5578947,56.8608696 85.1087719,56.7478261 C84.0982456,56.5217391 83.2,56.973913 82.6385965,57.7652174 C81.9649123,58.5565217 81.4035088,59.3478261 80.8421053,60.1391304 C78.9333333,62.9652174 77.1368421,65.9043478 75.5649123,68.9565217 C75.3403509,69.4086957 75.0035088,69.8608696 74.7789474,70.3130435 C74.554386,70.6521739 74.3298246,71.1043478 73.9929825,71.3304348 C73.8807018,71.4434783 73.7684211,71.3304348 73.5438596,71.3304348 C72.9824561,71.1043478 72.7578947,70.426087 72.645614,69.8608696 C72.5333333,69.1826087 72.5333333,68.7304348 72.4210526,67.6 C72.1964912,66.1304348 72.0842105,65 72.7578947,63.6434783 C73.6561404,62.173913 74.8912281,60.9304348 76.3508772,60.026087 C77.922807,59.2347826 79.2701754,57.9913043 80.0561404,56.4086957 C80.3929825,55.8434783 80.5052632,55.0521739 80.5052632,54.373913 C80.5052632,54.0347826 80.6175439,52.9043478 80.1684211,52.5652174 C79.8315789,52.3391304 78.9333333,52.6782609 78.5964912,52.7913043 C78.1473684,52.9043478 77.5859649,53.1304348 77.1368421,53.3565217 C76.3508772,53.8086957 75.2280702,54.4869565 74.7789474,55.2782609 C74.1052632,56.4086957 73.4315789,57.6521739 72.9824561,58.8956522 C72.9824561,59.3478261 72.3087719,61.6086957 71.6350877,61.7217391 Z M94.3157895,55.6173913 C93.8666667,55.8434783 93.5298246,56.6347826 93.4175439,56.973913 C93.0807018,57.6521739 92.8561404,58.4434783 92.7438596,59.1217391 C92.5192982,59.9130435 92.2947368,60.7043478 91.845614,61.4956522 C91.6210526,61.9478261 91.2842105,62.4 90.8350877,62.7391304 C90.1614035,63.1913043 89.3754386,63.5304348 88.7017544,63.9826087 C87.9157895,64.5478261 87.2421053,65.1130435 86.4561404,65.6782609 C83.6491228,67.826087 81.9649123,71.2173913 82.077193,74.7217391 C82.077193,81.7304348 81.1789474,88.5130435 77.0245614,94.1652174 C76.4631579,94.9565217 75.4526316,96.2 75.0035088,96.9913043 C74.554386,97.7826087 73.7684211,98.6869565 73.3192982,99.4782609 C72.8701754,100.269565 70.1754386,103.547826 69.8385965,104.452174 C69.5017544,105.356522 68.0421053,108.521739 67.7052632,109.313043 C67.3684211,110.104348 67.0315789,110.895652 66.6947368,111.686957 C65.9087719,113.269565 65.122807,114.852174 64.2245614,116.321739 C62.4280702,119.26087 60.1824561,122.086957 57.8245614,124.573913 C57.2631579,125.252174 56.5894737,125.817391 55.9157895,126.382609 C55.5789474,126.721739 54.9052632,127.513043 54.4561404,127.513043 C54.3438596,127.513043 54.3438596,127.513043 54.2315789,127.4 C54.0070175,127.286957 53.8947368,127.173913 53.7824561,127.06087 C53.6701754,126.947826 53.6701754,126.721739 53.7824561,126.495652 C53.8947368,126.043478 54.4561404,125.817391 54.7929825,125.478261 C55.8035088,124.46087 56.8140351,123.443478 57.6,122.313043 C66.0210526,112.13913 71.1859649,99.8173913 72.645614,86.7043478 C72.7578947,85.2347826 72.8701754,83.6521739 72.8701754,82.1826087 C72.8701754,79.3565217 73.8807018,76.6434783 75.7894737,74.6086957 L79.7192982,70.0869565 C81.2912281,68.3913043 82.7508772,66.5826087 84.0982456,64.6608696 C84.322807,64.4347826 84.4350877,64.0956522 84.6596491,63.7565217 C85.1087719,62.7391304 85.3333333,61.7217391 85.3333333,60.5913043 C85.3333333,60.1391304 85.445614,59.573913 85.2210526,59.2347826 C84.9964912,58.7826087 84.6596491,58.5565217 84.7719298,57.9913043 C84.7719298,57.9913043 84.7719298,57.8782609 84.8842105,57.8782609 C84.8842105,57.8782609 84.8842105,57.8782609 84.9964912,57.8782609 C85.1087719,57.8782609 85.1087719,57.8782609 85.2210526,57.8782609 C85.5578947,57.8782609 85.8947368,57.9913043 86.1192982,58.1043478 C86.4561404,58.4434783 86.7929825,58.7826087 87.0175439,59.2347826 C87.5789474,60.2521739 89.0385965,59.0086957 89.3754386,58.4434783 C90.0491228,56.973913 90.4982456,55.2782609 90.722807,53.5826087 C90.8350877,52.6782609 91.0596491,51.773913 91.6210526,51.0956522 C91.845614,50.7565217 92.0701754,50.4173913 92.4070175,50.1913043 C92.6315789,50.0782609 93.1929825,49.626087 93.4175439,49.8521739 C93.5298246,49.9652174 93.5298246,50.0782609 93.5298246,50.1913043 C93.3052632,50.6434783 92.9684211,50.9826087 92.7438596,51.4347826 C92.4070175,52 92.4070175,52.5652174 92.5192982,53.1304348 C92.6315789,53.2434783 92.6315789,53.2434783 92.7438596,53.1304348 C92.9684211,53.0173913 93.0807018,52.7913043 93.1929825,52.6782609 C93.4175439,52.3391304 93.754386,51.5478261 94.3157895,51.773913 C95.3263158,52.1130435 93.8666667,53.3565217 93.5298246,53.6956522 C93.0807018,54.1478261 92.8561404,54.7130435 92.7438596,55.2782609 C92.7438596,55.5043478 92.8561404,55.7304348 93.0807018,55.7304348 C93.1929825,55.7304348 93.3052632,55.6173913 93.4175439,55.5043478 L93.5298246,55.3913043 C93.754386,55.1652174 93.9789474,55.0521739 94.3157895,54.9391304 C94.4280702,54.9391304 94.5403509,54.826087 94.7649123,54.9391304 C94.877193,54.9391304 94.9894737,55.1652174 94.877193,55.2782609 C94.5403509,55.5043478 94.4280702,55.5043478 94.3157895,55.6173913 Z" id="Shape" fill="#B13A25"></path>
                <g opacity="0.17" id="Shape">
                    <path d="M97.7964912,53.8086957 C98.1333333,53.5826087 98.5824561,53.5826087 98.8070175,53.9217391 L124.85614,83.9913043 C126.203509,79.8086957 127.101754,75.4 127.550877,70.8782609 L99.9298246,52.3391304 C99.5929825,52.1130435 99.4807018,51.6608696 99.7052632,51.3217391 C99.9298246,50.9826087 100.378947,50.8695652 100.715789,51.0956522 L127.775439,69.1826087 C127.887719,67.6 128,66.0173913 128,64.4347826 C128,63.4173913 128,62.2869565 127.887719,61.2695652 L100.940351,49.2869565 C100.603509,49.173913 100.378947,48.7217391 100.603509,48.2695652 C100.715789,47.9304348 101.164912,47.7043478 101.614035,47.9304348 L127.887719,59.573913 C127.550877,55.3913043 126.877193,51.2086957 125.754386,47.2521739 L101.726316,46.3478261 C101.277193,46.3478261 100.940351,46.0086957 101.052632,45.5565217 C101.052632,45.1043478 101.389474,44.8782609 101.838596,44.8782609 L125.305263,45.7826087 C124.407018,42.7304348 123.17193,39.6782609 121.824561,36.8521739 L101.164912,42.8434783 C101.052632,42.8434783 101.052632,42.8434783 100.940351,42.8434783 C100.603509,42.8434783 100.266667,42.6173913 100.266667,42.2782609 C100.154386,41.826087 100.378947,41.4869565 100.82807,41.373913 L121.263158,35.4956522 C120.02807,33.1217391 118.680702,30.7478261 117.221053,28.4869565 L99.7052632,39.5652174 C99.5929825,39.6782609 99.4807018,39.6782609 99.2561404,39.6782609 C99.0315789,39.6782609 98.8070175,39.5652174 98.5824561,39.3391304 C98.3578947,39 98.4701754,38.5478261 98.8070175,38.3217391 L115.985965,27.2434783 C104.533333,10.7391304 85.5578947,0 64,0 C28.6315789,0 0,28.826087 0,64.4347826 C0,80.373913 5.83859649,94.9565217 15.3824561,106.26087 C15.8315789,104.678261 16.2807018,103.208696 16.8421053,101.626087 C17.7403509,99.5913043 18.3017544,97.4434783 18.7508772,95.2956522 C18.6385965,93.373913 18.9754386,91.4521739 19.6491228,89.6434783 C20.0982456,88.5130435 20.6596491,87.3826087 21.1087719,86.2521739 C21.2210526,85.9130435 23.2421053,81.6173913 23.4666667,81.3913043 C23.6912281,81.1652174 24.0280702,80.6 24.3649123,81.0521739 C24.7017544,81.3913043 24.5894737,82.2956522 24.5894737,82.6347826 C24.5894737,83.2 24.7017544,83.8782609 24.7017544,84.4434783 C24.8140351,85.6869565 24.9263158,86.9304348 24.9263158,88.173913 C25.0385965,90.5478261 25.1508772,92.9217391 25.1508772,95.4086957 C25.1508772,97.7826087 25.1508772,100.156522 25.1508772,102.530435 C25.2631579,106.713043 25.7122807,110.895652 26.6105263,114.965217 C26.722807,115.643478 26.9473684,116.321739 27.0596491,116.886957 C27.7333333,117.33913 28.2947368,117.791304 28.9684211,118.243478 C28.6315789,116.886957 28.2947368,115.530435 27.9578947,114.173913 C27.3964912,111.234783 27.0596491,108.408696 26.9473684,105.469565 C26.8350877,103.095652 26.1614035,87.4956522 25.9368421,85.6869565 C25.8245614,85.0086957 25.7122807,84.3304348 25.7122807,83.6521739 L25.4877193,81.7304348 C25.3754386,81.1652174 25.2631579,80.6 25.4877193,79.9217391 C25.7122807,79.3565217 26.1614035,78.9043478 26.6105263,78.4521739 C27.1719298,77.8869565 27.5087719,76.9826087 27.9578947,76.3043478 C28.8561404,75.0608696 29.6421053,73.5913043 30.3157895,72.2347826 C30.6526316,71.4434783 30.877193,70.5391304 30.877193,69.7478261 C30.877193,69.2956522 30.877193,68.8434783 30.7649123,68.3913043 C30.6526316,68.0521739 30.6526316,67.826087 30.5403509,67.4869565 C30.5403509,67.373913 30.4280702,67.373913 30.4280702,67.2608696 C30.2035088,66.8086957 29.754386,66.2434783 29.4175439,65.7913043 C28.7438596,65.226087 28.2947368,64.6608696 27.7333333,63.8695652 C27.2842105,63.3043478 26.6105263,62.626087 27.0596491,61.9478261 C27.2842105,61.4956522 28.1824561,61.4956522 28.6315789,61.4956522 C29.6421053,61.6086957 30.6526316,61.7217391 31.6631579,61.7217391 C32.2245614,61.7217391 32.6736842,61.4956522 33.0105263,61.0434783 C33.2350877,60.7043478 33.2350877,59.9130435 33.2350877,59.573913 C33.2350877,59.1217391 33.2350877,58.5565217 33.2350877,58.1043478 C33.122807,57.0869565 32.8982456,56.1826087 32.5614035,55.2782609 C31.7754386,53.3565217 30.5403509,52.1130435 28.9684211,50.8695652 C28.8561404,50.7565217 28.8561404,50.7565217 28.7438596,50.6434783 C28.6315789,50.5304348 28.5192982,50.3043478 28.4070175,50.0782609 C28.1824561,49.5130435 28.1824561,48.8347826 28.0701754,48.1565217 C27.7333333,44.9913043 27.845614,41.7130435 28.4070175,38.5478261 C28.7438596,36.2869565 30.3157895,34.4782609 32.4491228,33.6869565 C32.4491228,33.6869565 31.8877193,33.3478261 31.8877193,33.2347826 C31.6631579,33.1217391 31.4385965,33.0086957 31.2140351,33.0086957 C30.7649123,32.8956522 30.2035088,32.8956522 29.754386,33.0086957 C29.3052632,33.1217391 28.7438596,33.3478261 28.4070175,33.573913 C27.9578947,33.9130435 27.9578947,34.3652174 27.2842105,34.4782609 C27.2842105,34.4782609 27.2842105,34.4782609 27.1719298,34.4782609 C27.1719298,34.4782609 27.0596491,34.4782609 27.0596491,34.4782609 C26.9473684,34.4782609 26.722807,33.9130435 26.722807,33.8 C26.6105263,33.573913 26.6105263,33.2347826 26.6105263,33.0086957 C26.3859649,32.4434783 25.9368421,31.2 26.3859649,30.7478261 C26.722807,30.4086957 27.0596491,30.4086957 27.3964912,30.4086957 C27.7333333,30.4086957 28.1824561,30.5217391 28.5192982,30.2956522 C28.9684211,29.9565217 29.1929825,29.3913043 29.5298246,29.0521739 C29.754386,28.7130435 30.2035088,28.4869565 30.5403509,28.2608696 C31.3263158,27.9217391 32.1122807,27.8086957 32.8982456,28.0347826 C33.2350877,28.1478261 33.6842105,28.2608696 33.9087719,28.6 C34.1333333,28.826087 34.245614,29.1652174 34.5824561,29.2782609 C35.1438596,29.3913043 35.3684211,29.0521739 35.4807018,28.6 C35.5929825,28.1478261 35.8175439,27.5826087 36.3789474,28.0347826 C36.7157895,28.2608696 36.7157895,28.826087 36.7157895,29.1652174 C36.7157895,29.5043478 36.6035088,29.8434783 36.7157895,30.1826087 C36.9403509,30.973913 37.6140351,31.5391304 38.2877193,31.9913043 C40.0842105,33.2347826 42.3298246,34.2521739 44.5754386,33.8 C44.6877193,33.8 44.8,33.6869565 44.9122807,33.8 C45.0245614,33.8 45.1368421,33.9130435 45.2491228,34.026087 C45.2491228,34.1391304 45.2491228,34.1391304 45.2491228,34.2521739 C45.3614035,34.4782609 45.922807,34.7043478 46.1473684,34.8173913 C46.4842105,35.0434783 46.8210526,35.3826087 47.1578947,35.7217391 C47.8315789,36.2869565 48.3929825,37.0782609 48.7298246,37.8695652 C49.6280702,39.4521739 50.077193,41.1478261 49.9649123,42.9565217 C49.9649123,44.2 49.8526316,45.4434783 49.9649123,46.573913 C49.9649123,46.8 50.077193,47.026087 50.1894737,47.1391304 C50.3017544,47.3652174 50.3017544,47.4782609 50.4140351,47.7043478 C50.5263158,48.0434783 50.7508772,48.4956522 50.9754386,48.8347826 C51.4245614,49.5130435 51.8736842,50.1913043 52.5473684,50.7565217 C52.9964912,51.0956522 53.3333333,51.4347826 53.7824561,51.773913 C54.0070175,51.8869565 54.2315789,52.1130435 54.4561404,52.226087 C54.5684211,52.3391304 54.6807018,52.3391304 54.7929825,52.4521739 C54.9052632,52.6782609 54.6807018,52.9043478 54.4561404,53.1304348 C54.2315789,53.2434783 54.0070175,53.2434783 53.6701754,53.2434783 C53.445614,53.2434783 53.2210526,53.1304348 52.8842105,53.1304348 C52.7719298,53.1304348 52.7719298,53.1304348 52.6596491,53.1304348 C52.5473684,53.1304348 52.5473684,53.1304348 52.4350877,53.2434783 C52.322807,53.3565217 52.2105263,53.6956522 52.0982456,53.8086957 C51.9859649,54.0347826 51.9859649,54.2608696 51.8736842,54.4869565 L51.2,56.0695652 C50.7508772,57.2 50.3017544,58.2173913 49.8526316,59.3478261 C49.7403509,59.6869565 49.5157895,60.1391304 49.4035088,60.4782609 C48.954386,61.7217391 48.0561404,62.8521739 47.045614,63.6434783 C45.4736842,65 43.9017544,66.3565217 41.9929825,67.0347826 C37.6140351,68.7304348 35.7052632,75.2869565 35.4807018,75.7391304 C35.1438596,76.4173913 35.1438596,77.2086957 35.2561404,77.8869565 C35.3684211,78.3391304 35.5929825,78.9043478 35.9298246,79.2434783 C36.2666667,79.5826087 38.7368421,81.0521739 39.0736842,81.6173913 C39.2982456,81.8434783 39.522807,82.2956522 39.522807,82.6347826 C39.6350877,83.5391304 39.1859649,84.5565217 38.9614035,85.4608696 C38.7368421,86.3652174 38.5122807,87.2695652 38.2877193,88.173913 C38.0631579,89.1913043 37.7263158,90.3217391 37.5017544,91.3391304 C35.9298246,97.3304348 34.4701754,103.321739 33.122807,109.313043 C32.3368421,113.043478 31.8877193,116.886957 31.8877193,120.730435 C32.5614035,121.069565 33.2350877,121.521739 33.9087719,121.86087 C33.7964912,117.565217 34.0210526,113.269565 34.8070175,109.086957 C36.4912281,100.156522 38.7368421,91.4521739 41.6561404,82.8608696 C47.3824561,82.0695652 52.7719298,79.8086957 57.3754386,76.3043478 C57.6,76.0782609 57.9368421,75.9652174 58.1614035,75.7391304 C60.2947368,74.0434783 62.4280702,72.3478261 64.4491228,70.5391304 C65.4596491,69.6347826 66.4701754,68.7304348 67.4807018,67.826087 C67.9298246,67.373913 68.4912281,66.9217391 68.9403509,66.4695652 C69.3894737,66.0173913 69.5017544,65.6782609 70.1754386,65.7913043 C70.2877193,65.7913043 70.5122807,65.7913043 70.6245614,65.9043478 C70.8491228,66.1304348 70.8491228,66.5826087 70.9614035,66.9217391 C71.0736842,68.6173913 71.1859649,70.2 71.2982456,71.8956522 C71.2982456,72.8 71.4105263,73.5913043 71.4105263,74.4956522 C71.4105263,75.0608696 71.522807,75.5130435 71.1859649,75.9652174 C70.8491228,76.7565217 70.4,77.4347826 69.8385965,78 C69.277193,78.5652174 64.6736842,83.5391304 64.4491228,83.9913043 C64.2245614,84.3304348 63.8877193,84.6695652 64,85.1217391 C64.2245614,85.9130435 65.2350877,85.0086957 65.4596491,84.7826087 C65.9087719,84.3304348 66.4701754,83.9913043 66.9192982,83.5391304 C67.4807018,82.8608696 68.154386,82.2956522 68.8280702,81.7304348 C69.277193,81.2782609 69.9508772,80.6 70.6245614,80.826087 C71.522807,81.1652174 71.0736842,82.973913 71.0736842,83.7652174 C70.9614035,84.8956522 70.8491228,86.026087 70.7368421,87.2695652 C70.4,89.5304348 69.9508772,91.9043478 69.277193,94.0521739 C68.6035088,96.5391304 67.8175439,99.026087 67.0315789,101.513043 C66.5824561,102.756522 66.245614,104 65.7964912,105.130435 C65.5719298,105.695652 65.3473684,106.373913 65.122807,106.93913 C64.8982456,107.391304 64.5614035,107.617391 64.2245614,107.843478 C63.8877193,108.069565 63.4385965,108.182609 63.1017544,108.295652 C62.3157895,108.634783 61.6421053,108.973913 60.8561404,109.313043 C59.3964912,109.991304 57.9368421,110.556522 56.477193,111.234783 C54.9052632,111.913043 53.3333333,112.591304 51.7614035,113.382609 C51.0877193,113.721739 50.4140351,113.947826 49.7403509,114.286957 C49.1789474,114.513043 48.2807018,114.73913 47.7192982,115.191304 C47.4947368,115.417391 47.2701754,115.530435 47.1578947,115.869565 C47.1578947,115.869565 47.1578947,115.982609 47.1578947,115.982609 C46.8210526,116.773913 47.3824561,117.791304 47.6070175,118.582609 C47.9438596,119.6 48.2807018,120.504348 48.5052632,121.521739 C49.0666667,123.443478 49.5157895,125.365217 49.9649123,127.4 C49.9649123,127.4 49.9649123,127.513043 49.9649123,127.513043 C49.9649123,127.626087 49.9649123,127.73913 49.9649123,127.852174 C54.3438596,128.869565 58.9473684,129.321739 63.6631579,129.321739 C91.6210526,129.321739 115.424561,111.234783 124.070175,86.026087 L97.3473684,55.2782609 C97.0812504,54.9720598 97.4596491,54.0347826 97.7964912,53.8086957 Z"></path>
                </g>
            </g>
            <g id="Group" transform="translate(0.000000, 168.522145)" fill="#B13A25">
                <g transform="translate(0.000000, 0.477855)" id="Path">
                    <path d="M3.84288922,3.75384615 C4.59717473,3.13846154 5.54003161,2.76923077 6.54574562,2.76923077 C7.11145974,2.76923077 7.67717387,2.76923077 8.242888,2.70769231 C11.762887,2.52307692 15.3457432,3.07692308 18.6143137,4.36923077 C18.7400279,4.43076923 18.9285993,4.49230769 18.9914564,4.61538462 C19.4943135,5.10769231 19.4943135,5.84615385 18.9914564,6.27692308 C18.1743138,7.26153846 17.1685998,8.12307692 16.1000287,8.86153846 C14.7171719,9.72307692 13.3343152,10.7076923 11.8886013,11.5076923 C11.1971729,11.9384615 10.4428874,12.3692308 9.75145901,12.7384615 C9.43717339,12.9230769 7.9914595,13.4153846 8.242888,13.7846154 C8.62003075,14.3384615 10.0657446,14.2153846 10.6943159,14.1538462 C11.3857443,14.0307692 12.0771727,14.2153846 12.6428868,14.5846154 C13.774315,15.3846154 14.0257435,16.9846154 13.2086009,18.0923077 C10.1914589,21.4769231 5.85431724,23.5076923 1.26574708,23.7538462 C1.20288995,23.7538462 1.14003283,23.7538462 1.01431858,23.7538462 C0.44860445,23.7538462 0.00860457169,23.3230769 0.00860457169,22.7692308 C0.00860457169,21.8461538 0.134318823,20.9230769 0.322890199,20 L1.89431833,13.0461538 C2.14574684,11.9384615 2.46003246,10.8923077 2.83717522,9.84615385 C3.27717509,8.55384615 3.5286036,7.13846154 3.5286036,5.78461538 C3.5286036,5.16923077 3.65431785,4.43076923 3.84288922,3.75384615"></path>
                    <path d="M25.780026,17.4769231 C25.780026,15.6307692 26.0314545,13.7846154 26.4714544,12.0615385 C26.5343115,11.7538462 26.6600258,11.5076923 26.8485971,11.2 C28.1685968,8.67692308 31.311453,7.69230769 33.8885952,8.98461538 C36.2143088,9.78461538 37.7228798,12 37.5971656,14.4 C37.5343084,15.4461538 37.0314514,16.4307692 36.2771659,17.1692308 C34.4543093,18.9538462 31.9400243,20 29.3628821,20 C28.294311,20 27.288597,19.5692308 26.5971686,18.8307692 C26.1571687,18.4615385 25.8428831,18.0307692 25.780026,17.4769231"></path>
                    <path d="M43.9457352,12.1230769 C43.2543069,13.7230769 43.317164,15.5692308 44.0714495,17.1076923 C44.9514492,18.2769231 46.2714489,19.0769231 47.7171628,19.3230769 C50.860019,20.5538462 54.5057323,19.3230769 56.2028747,16.4923077 C57.2714458,14.8307692 57.3971601,12.7384615 56.3914461,11.0153846 C55.8257319,10.1538462 55.0085893,9.53846154 54.0028753,9.23076923 C52.1800187,8.67692308 50.2314478,8.55384615 48.345734,8.98461538 C46.3971631,9.23076923 44.7628779,10.4 43.9457352,12.1230769"></path>
                    <path d="M72.2942988,1.6 C71.9171561,1.16923077 70.6600135,1.53846154 70.1571565,1.66153846 C69.402871,1.84615385 69.2142997,2.70769231 69.0257283,3.32307692 C68.0828714,6.95384615 67.0143003,10.5230769 65.7571578,14.0923077 C64.877158,15.9384615 64.6257295,17.9692308 64.9400151,20 C65.2543008,20.8615385 66.1343005,21.7230769 67.1400145,21.8461538 C68.0200143,21.9692308 68.3342999,21.1076923 68.7114427,20.4923077 C69.1514425,19.7538462 69.6542995,19.0153846 70.1571565,18.3384615 C70.5971564,17.6615385 71.2885848,17.1692308 71.9800132,16.8615385 C72.9228701,17.8461538 73.9914412,18.8307692 75.1228695,19.6923077 C76.4428691,20.7384615 78.0771543,21.4769231 79.7742967,21.7230769 C80.402868,21.8461538 82.2885817,22.0307692 82.6657245,21.4153846 C82.917153,21.0461538 81.9742961,20 81.6600105,19.5692308 C81.0942964,18.7692308 80.1514395,17.6615385 79.5228682,16.8615385 C78.39144,15.5076923 78.0142972,14.7076923 77.0085832,13.2923077 C77.888583,12.4923077 78.8314399,11.6923077 79.8371539,10.9538462 C81.0942964,9.78461538 81.9742961,8.18461538 82.2885817,6.52307692 C82.414296,6.4 82.3514389,6.21538462 82.2257246,6.15384615 C82.1628675,6.09230769 82.0371532,6.09230769 81.9742961,6.09230769 C80.2771537,6.70769231 78.6428685,7.44615385 77.0714403,8.36923077 C76.2542977,8.92307692 75.374298,9.47692308 74.4314411,9.84615385 C73.9914412,10.2769231 73.3628699,10.4615385 72.7342987,10.3384615 C71.6657276,10.1538462 71.0371563,9.16923077 71.2257277,8.12307692 C71.4142991,7.2 71.6028704,6.27692308 71.9171561,5.41538462 C72.1685846,4.67692308 72.2942988,3.93846154 72.4200131,3.2 C72.3571559,2.89230769 72.5457273,1.96923077 72.2942988,1.6"></path>
                    <path d="M98.94572,4.12307692 C97.1857205,4.36923077 95.4885781,4.98461538 93.9800071,5.96923077 C93.4142929,6.52307692 92.9742931,7.13846154 92.7857217,7.87692308 C92.2828647,9.47692308 92.7228646,11.2615385 93.9800071,12.4307692 C95.425721,13.7230769 96.8085777,15.0769231 98.1285774,16.4923077 C99.5114341,18.7692308 98.8200057,21.6615385 96.5571492,23.0769231 C95.8028637,23.6307692 94.8600068,23.9384615 93.91715,23.9384615 C93.2257216,23.9384615 92.0314362,23.8769231 91.5285792,23.3846154 C90.7114366,22.7076923 92.2200076,21.6 92.6600074,21.1076923 C93.4771501,20.1846154 94.2314356,19.2615385 94.9857211,18.2769231 C95.1742925,18.0923077 95.3000067,17.8461538 95.3628638,17.6 C95.425721,17.4153846 95.3628638,17.1692308 95.2371496,17.0461538 L94.7342926,16.4307692 C94.4828641,16.2461538 94.2314356,16.0615385 93.9800071,15.8769231 C92.4714361,15.0153846 91.0885793,13.2307692 90.6485794,11.5692308 C90.2714367,10.2153846 90.0828653,9.23076923 90.1457224,7.75384615 C90.2714367,6.03076923 91.1514364,4.61538462 92.4714361,3.50769231 C92.5342932,3.44615385 92.5971503,3.38461538 92.6600074,3.32307692 C92.7228646,3.26153846 92.7857217,3.2 92.7857217,3.07692308 C92.9742931,2.76923077 93.2885787,2.46153846 93.6028643,2.33846154 C93.8542928,2.21538462 95.3000067,1.78461538 95.7400066,1.66153846 C96.1800065,1.53846154 96.6200063,1.35384615 97.0600062,1.23076923 C97.6257204,1.04615385 98.1285774,0.861538462 98.6942915,0.676923077 C98.8828629,0.615384615 99.1342914,0.553846154 99.3857199,0.492307692 C99.6371484,0.430769231 99.951434,0.615384615 100.014291,0.861538462 L100.202862,2.95384615 C100.202862,3.26153846 100.140005,3.50769231 99.8885769,3.69230769 L98.94572,4.12307692 Z"></path>
                    <path d="M110.574288,13.4769231 C110.574288,12.2461538 111.202859,11.0769231 112.271431,10.3384615 C113.842859,9.29230769 115.602858,8.61538462 117.488572,8.43076923 C118.808572,8.30769231 120.128571,8.43076923 121.385714,8.92307692 C122.768571,9.41538462 123.64857,10.6461538 123.774285,12.0615385 C123.837142,12.8 123.64857,13.5384615 123.20857,14.0923077 C122.768571,14.7076923 122.454285,15.4461538 122.328571,16.2461538 C122.202856,17.0461538 121.637142,17.7230769 120.882857,18.0923077 C119.185714,18.8307692 117.300001,19.0153846 115.540001,18.5846154 C114.408573,18.3384615 113.340002,17.9076923 112.334288,17.2923077 C111.077145,16.4307692 110.448574,14.9538462 110.574288,13.4769231"></path>
                    <path d="M132.134282,6.03076923 C132.071425,5.96923077 132.008568,5.96923077 131.945711,5.96923077 C131.31714,5.84615385 130.814283,6.03076923 130.311426,6.4 C129.745711,6.76923077 129.305712,7.32307692 129.11714,7.93846154 C128.425712,10.0923077 128.23714,12.3692308 128.551426,14.5846154 C128.739997,15.6923077 128.991426,16.8 129.368569,17.9076923 C129.55714,18.4615385 130.122854,20.4307692 130.939997,20.4307692 C131.631425,20.4307692 132.071425,19.6307692 132.134282,19.0769231 C132.385711,17.7846154 132.448568,16.5538462 132.448568,15.2615385 C132.448568,14.5846154 132.448568,13.9076923 132.574282,13.2923077 C132.637139,13.1076923 132.699996,12.9230769 132.888568,12.9230769 C132.951425,12.9230769 133.014282,12.9846154 133.077139,13.0461538 C133.328568,13.2923077 133.517139,13.5384615 133.768567,13.7846154 C133.894282,13.9692308 134.082853,14.2153846 134.208567,14.4 C134.334282,14.5846154 134.522853,14.7692308 134.711424,14.9538462 C135.528567,15.8153846 136.34571,16.6153846 137.099995,17.5384615 C137.414281,18.0307692 137.791423,18.5230769 138.168566,18.9538462 C138.294281,19.2615385 138.671423,19.4461538 138.985709,19.3230769 C139.111423,19.2615385 139.237137,19.2 139.299995,19.0769231 C139.61428,18.5846154 139.928566,18.0307692 140.179994,17.4153846 L140.557137,16.9846154 C141.688565,15.6923077 142.442851,14.0923077 142.757136,12.3692308 C143.071422,10.5230769 142.379994,8.67692308 140.997137,7.38461538 C140.431423,6.89230769 139.551423,6.89230769 139.048566,7.44615385 C138.922852,7.56923077 138.859995,7.69230769 138.797138,7.81538462 C138.73428,7.93846154 138.73428,8 138.671423,8.12307692 C138.482852,8.98461538 138.294281,9.84615385 138.168566,10.7076923 C138.042852,11.4461538 137.854281,12.1230769 137.477138,12.7384615 C137.351424,12.9846154 137.162852,13.1692308 137.037138,13.3538462 C136.722852,13.5384615 136.34571,13.4769231 136.094281,13.2307692 C135.402853,12.7384615 134.837139,12.1230769 134.522853,11.3230769 C134.019996,10.0307692 133.391425,8.73846154 132.888568,7.38461538 C132.574282,6.83076923 132.574282,6.21538462 132.134282,6.03076923"></path>
                    <path d="M150.55142,2.03076923 L153.442848,16.9230769 C153.631419,17.8461538 153.81999,18.7076923 154.134276,19.6307692 C154.25999,20.0615385 154.385705,20.4923077 154.448562,20.9230769 C154.511419,21.3538462 154.448562,21.8461538 154.69999,22.2153846 C154.762847,22.4 154.888562,22.5846154 155.077133,22.6461538 C155.202847,22.7692308 155.391419,22.7692308 155.57999,22.7692308 C156.45999,22.8307692 157.277132,22.6461538 158.031418,22.1538462 C158.408561,21.9692308 158.722846,21.7230769 159.037132,21.4153846 C159.225703,21.2307692 159.791417,20.6769231 159.791417,20.4307692 C160.482846,19.2 161.362846,18.0923077 162.305702,17.0461538 C162.682845,16.6769231 163.311416,16.2461538 163.877131,16.3076923 C164.568559,16.3692308 164.882845,16.8615385 165.19713,17.2923077 C165.63713,17.9076923 165.888559,18.5846154 166.202844,19.3230769 C166.51713,20 166.51713,21.1692308 167.459987,21.2923077 C168.151415,21.4153846 168.968558,21.1076923 169.659986,20.8615385 C170.288557,20.6153846 170.917129,20.3076923 171.419986,19.8769231 C172.551414,19.0769231 173.431414,18.0307692 173.997128,16.8 C174.185699,16.3692308 174.37427,15.8769231 174.499985,15.4461538 C174.562842,15.2 174.625699,14.9538462 174.688556,14.7692308 C175.128556,12.9846154 175.317127,11.1384615 175.379985,9.29230769 C175.379985,7.50769231 175.568556,5.66153846 175.191413,3.93846154 C175.128556,3.63076923 175.065699,3.38461538 174.939985,3.07692308 C174.877127,2.83076923 174.751413,2.64615385 174.562842,2.46153846 C174.37427,2.27692308 174.122842,2.21538462 173.934271,2.21538462 C173.619985,2.27692308 173.431414,2.58461538 173.305699,2.89230769 C173.117128,3.38461538 173.179985,3.87692308 173.117128,4.36923077 C173.054271,4.92307692 172.928557,5.53846154 172.865699,6.09230769 C172.614271,7.32307692 172.362842,8.86153846 171.734271,9.96923077 C171.042843,11.2 170.288557,12.3692308 169.408558,13.5384615 C169.3457,13.6 169.282843,13.6615385 169.219986,13.7230769 C168.905701,13.9076923 168.465701,13.7846154 168.277129,13.4769231 C167.899987,12.8 167.648558,12.0615385 167.648558,11.2615385 C167.585701,9.84615385 167.648558,8.36923077 167.711415,6.95384615 C167.774272,6.27692308 168.025701,5.29230769 167.208558,4.98461538 C166.139987,4.55384615 164.442845,5.16923077 163.499988,5.66153846 C162.682845,6.09230769 162.054274,6.89230769 161.802845,7.81538462 L161.362846,8.98461538 L159.791417,13.1692308 C159.477132,14.0307692 158.659989,15.3846154 157.717132,15.7538462 C156.774275,16.1230769 156.397133,14.7692308 156.208561,14.1538462 C155.894276,13.3538462 155.642847,12.4923077 155.517133,11.6307692 C155.391419,10.7692308 155.265704,9.90769231 155.265704,9.10769231 C155.13999,6.76923077 154.951419,4.43076923 154.637133,2.09230769 C154.574276,1.78461538 154.511419,1.47692308 154.322847,1.16923077 C154.134276,0.8 153.757133,0.615384615 153.317133,0.676923077 C152.499991,0.8 151.745705,1.04615385 151.054277,1.47692308 C150.55142,1.6 150.488563,1.84615385 150.55142,2.03076923"></path>
                    <path d="M189.89998,2.95384615 C189.962838,3.44615385 189.774266,4 189.648552,4.36923077 C189.522838,4.73846154 189.522838,5.10769231 189.522838,5.47692308 C189.459981,6.46153846 189.459981,7.50769231 189.522838,8.49230769 C189.585695,9.41538462 189.774266,10.3384615 189.962838,11.2615385 C190.151409,11.9384615 190.277123,12.9230769 190.905694,13.3538462 C191.785694,13.9076923 193.231408,13.7230769 194.237122,13.7846154 C194.677122,13.8461538 195.117122,13.9076923 195.557122,13.9692308 C195.997122,14.0307692 196.68855,13.9692308 196.939979,14.4 C197.002836,14.5230769 197.065693,14.7076923 197.002836,14.8923077 C196.939979,15.0769231 196.814264,15.2615385 196.625693,15.3846154 C195.80855,15.9384615 194.425694,15.8769231 193.482837,15.8153846 C192.97998,15.8153846 191.848551,15.4461538 191.471409,15.9384615 C191.345694,16.1230769 191.282837,16.4307692 191.345694,16.6769231 C191.408551,17.9076923 191.911408,19.0769231 192.225694,20.2461538 C192.351408,20.6769231 192.351408,21.1692308 192.225694,21.6 C192.225694,21.6615385 192.162837,21.7230769 192.162837,21.8461538 C192.162837,21.9076923 192.09998,21.9692308 192.037123,21.9692308 C191.911408,22.0307692 191.785694,22.0307692 191.722837,21.9076923 C190.717123,21.0461538 189.89998,20 189.208552,18.8923077 C188.894266,18.3384615 188.579981,17.7846154 188.328552,17.1692308 C188.077124,16.6153846 188.014267,16 187.574267,15.5076923 C187.197124,15.0153846 186.379981,15.0769231 185.814267,14.9538462 C185.437125,14.8923077 184.997125,14.8307692 184.619982,14.7692308 C184.242839,14.7692308 183.928554,14.8923077 183.739982,15.2 C183.174268,16.0615385 182.545697,16.8615385 181.791411,17.5384615 C181.037126,18.2153846 180.408555,19.0153846 179.591412,19.6307692 C179.339983,19.8153846 179.025698,20 178.711412,19.9384615 C178.397127,19.8769231 178.397127,18.6461538 178.397127,18.4615385 C178.522841,17.5384615 178.774269,16.6153846 179.088555,15.6923077 L181.979983,8.55384615 C182.92284,6.21538462 184.431411,4.06153846 186.254267,2.33846154 C186.882838,1.72307692 187.825695,1.6 188.642838,1.90769231 C189.019981,2.09230769 189.459981,1.96923077 189.774266,2.33846154 C189.837123,2.58461538 189.837123,2.76923077 189.89998,2.95384615"></path>
                    <path d="M203.288548,2.70769231 C203.288548,2.70769231 203.288548,2.70769231 203.288548,2.70769231 C202.911405,3.01538462 202.848548,3.44615385 202.785691,3.87692308 C202.722834,4.36923077 202.534263,4.86153846 202.408548,5.41538462 C202.15712,6.52307692 201.905691,7.63076923 201.779977,8.73846154 C201.465692,10.9538462 201.402834,13.2307692 201.591406,15.4461538 C201.654263,16.3692308 201.779977,17.2307692 201.968549,18.1538462 C202.094263,19.0153846 202.219977,19.8769231 202.785691,20.5538462 C203.351405,21.1692308 204.357119,21.0461538 205.174262,21.0461538 C206.117119,21.0461538 207.122833,20.9846154 208.06569,20.8 C210.705689,20.3076923 213.722831,19.0769231 215.294259,16.8 C215.419973,16.6153846 215.545688,16.3692308 215.608545,16.1846154 C215.671402,16 215.608545,15.6923077 215.357116,15.5692308 C215.168545,15.4461538 214.854259,15.5076923 214.728545,15.5692308 C213.722831,16.1230769 212.65426,16.6153846 211.648546,17.1692308 C210.705689,17.6615385 209.762832,17.9692308 208.757118,18.1538462 C208.254261,18.2153846 207.688547,18.2153846 207.18569,18.2153846 C206.871404,18.2153846 206.30569,18.2153846 206.054262,17.9692308 C205.614262,17.4769231 205.739976,16.6153846 205.739976,16 C205.739976,15.5076923 205.739976,15.0769231 205.739976,14.5846154 C205.677119,13.4153846 205.614262,12.2461538 205.488548,11.0769231 C205.237119,8.73846154 204.859976,6.46153846 204.419976,4.12307692 C204.357119,3.69230769 204.294262,3.26153846 204.042834,2.89230769 C203.979977,2.83076923 203.979977,2.70769231 203.854262,2.64615385 C203.665691,2.58461538 203.414262,2.58461538 203.288548,2.70769231"></path>
                    <path d="M222.082829,3.56923077 C222.082829,3.56923077 222.019972,3.63076923 222.019972,3.63076923 C221.8314,3.81538462 221.8314,4.18461538 221.768543,4.43076923 C221.642829,4.73846154 221.579972,5.10769231 221.517115,5.41538462 C221.328543,6.09230769 221.202829,6.76923077 221.077115,7.38461538 C220.888543,8.73846154 220.762829,10.0307692 220.762829,11.3846154 C220.762829,13.4153846 220.825686,15.4461538 220.888543,17.4769231 C221.014258,19.6307692 222.837114,21.2923077 225.037114,21.1692308 C225.225685,21.1692308 225.477113,21.1076923 225.665685,21.1076923 C228.054256,20.8615385 230.379969,20.2461538 232.579969,19.2615385 C234.339968,18.5846154 236.037111,17.8461538 237.79711,16.9846154 C238.23711,16.6769231 238.739967,16.4923077 238.928538,15.9384615 C239.054253,15.6307692 238.991395,15.3230769 238.802824,15.0769231 C238.67711,14.8923077 238.425681,14.8307692 238.23711,14.7692308 C237.545682,14.6461538 236.791396,14.7076923 236.037111,14.7692308 C235.282825,14.8307692 234.52854,14.9538462 233.837111,15.1384615 C232.391397,15.5076923 231.00854,15.9384615 229.625684,16.4307692 C228.934255,16.7384615 228.054256,16.8615385 227.29997,17.0461538 C226.608542,17.1692308 225.854256,17.3538462 225.162828,17.2923077 C225.162828,17.2923077 225.099971,17.2923077 225.099971,17.2923077 C225.037114,17.2923077 225.037114,17.2307692 225.037114,17.2307692 C224.722828,16.9230769 224.785685,16.4307692 224.722828,16 C224.659971,15.5076923 224.659971,15.0153846 224.659971,14.5846154 C224.597114,13.6 224.597114,12.6769231 224.597114,11.6923077 C224.597114,9.41538462 224.408542,7.07692308 224.0314,4.8 C223.968542,4.36923077 223.779971,3.93846154 223.402828,3.63076923 C223.025686,3.50769231 222.459971,3.26153846 222.082829,3.56923077"></path>
                </g>
            </g>
        </g>
    </g>
</svg>